<svg xmlns="http://www.w3.org/2000/svg" width="16" height="16"><g fill="none"><g><rect width="16" height="16" fill="#ADB5BD" rx="2"/><path fill="#868E96" d="M0 13a2 2 0 0 0 1.85 1.995L2 15h12a2 2 0 0 0 1.995-1.85L16 13v1a2 2 0 0 1-2 2H2a2 2 0 0 1-2-2v-1z"/><path fill="#CED4DA" d="M14 0a2 2 0 0 1 2 2v1a2 2 0 0 0-1.85-1.995L14 1H2A2 2 0 0 0 .005 2.85L0 3V2a2 2 0 0 1 2-2h12z"/></g><path fill="#0B0D0E" d="M6.146 12l.54-1.658H9.31L9.85 12h1.648L8.99 4.727H7.009L4.5 12h1.647zm2.777-2.859H7.077l.895-2.752h.056l.895 2.752z"/></g></svg>