<svg xmlns="http://www.w3.org/2000/svg" width="16" height="16" viewBox="0 0 16 16">
    <g fill="none" fill-rule="evenodd">
        <g fill-rule="nonzero">
            <g>
                <g>
                    <g transform="translate(-135 -468) translate(88 460) translate(47 8)">
                        <rect width="16" height="16" fill="#ADB5BD" rx="2"/>
                        <path fill="#868E96" d="M0 13c0 1.054.816 1.918 1.85 1.995L2 15h12c1.054 0 1.918-.816 1.995-1.85L16 13v1c0 1.105-.895 2-2 2H2c-1.105 0-2-.895-2-2v-1z"/>
                        <path fill="#CED4DA" d="M14 0c1.105 0 2 .895 2 2v1c0-1.054-.816-1.918-1.85-1.995L14 1H2C.946 1 .082 1.816.005 2.85L0 3V2C0 .895.895 0 2 0h12z"/>
                    </g>
                    <path fill="#0B0D0E" d="M8.435 12c1.634 0 2.504-.852 2.504-2.01 0-1.076-.771-1.726-1.598-1.765v-.07c.756-.171 1.313-.708 1.313-1.563 0-1.09-.81-1.865-2.414-1.865H5.328V12h3.107zm-.43-4.23h-1.14v-1.8h1.169c.682 0 1.069.352 1.069.877 0 .576-.47.924-1.098.924zm.114 2.973H6.865V8.81h1.29c.738 0 1.196.426 1.196 1.026 0 .547-.373.906-1.232.906z" transform="translate(-135 -468) translate(88 460) translate(47 8)"/>
                </g>
            </g>
        </g>
    </g>
</svg>
