<svg xmlns="http://www.w3.org/2000/svg" width="16" height="16"><g fill="none"><rect width="16" height="16" fill="#ADB5BD" rx="2"/><path fill="#868E96" d="M0 13a2 2 0 0 0 1.85 1.995L2 15h12a2 2 0 0 0 1.995-1.85L16 13v1a2 2 0 0 1-2 2H2a2 2 0 0 1-2-2v-1z"/><path fill="#CED4DA" d="M14 0a2 2 0 0 1 2 2v1a2 2 0 0 0-1.85-1.995L14 1H2A2 2 0 0 0 .005 2.85L0 3V2a2 2 0 0 1 2-2h12z"/><path fill="#0B0D0E" d="M8.131 12.1c1.865 0 2.99-1.24 3.157-2.579l-1.555-.007c-.146.778-.756 1.225-1.577 1.225-1.104 0-1.853-.82-1.853-2.375 0-1.513.738-2.376 1.864-2.376.842 0 1.449.486 1.566 1.285h1.555c-.202-1.68-1.473-2.645-3.157-2.645-1.92 0-3.387 1.356-3.387 3.736 0 2.372 1.441 3.735 3.387 3.735z"/></g></svg>