<svg xmlns="http://www.w3.org/2000/svg" width="16" height="16"><g fill="none"><rect width="16" height="16" fill="#ADB5BD" rx="2"/><path fill="#868E96" d="M0 13a2 2 0 0 0 1.85 1.995L2 15h12a2 2 0 0 0 1.995-1.85L16 13v1a2 2 0 0 1-2 2H2a2 2 0 0 1-2-2v-1z"/><path fill="#CED4DA" d="M14 0a2 2 0 0 1 2 2v1a2 2 0 0 0-1.85-1.995L14 1H2A2 2 0 0 0 .005 2.85L0 3V2a2 2 0 0 1 2-2h12z"/><path fill="#0B0D0E" d="M8.135 12.1c1.836 0 3.146-1.162 3.146-3.076v-.916H8.238v1.158H9.8c-.02.902-.635 1.473-1.658 1.473-1.154 0-1.882-.863-1.882-2.382 0-1.513.756-2.37 1.868-2.37.792 0 1.328.41 1.523 1.091h1.563c-.2-1.438-1.467-2.45-3.111-2.45-1.921 0-3.402 1.385-3.402 3.743 0 2.3 1.385 3.728 3.434 3.728z"/></g></svg>