<svg xmlns="http://www.w3.org/2000/svg" width="16" height="16"><g fill="none"><rect width="16" height="16" fill="#ADB5BD" rx="2"/><path fill="#868E96" d="M0 13a2 2 0 0 0 1.85 1.995L2 15h12a2 2 0 0 0 1.995-1.85L16 13v1a2 2 0 0 1-2 2H2a2 2 0 0 1-2-2v-1z"/><path fill="#CED4DA" d="M14 0a2 2 0 0 1 2 2v1a2 2 0 0 0-1.85-1.995L14 1H2A2 2 0 0 0 .005 2.85L0 3V2a2 2 0 0 1 2-2h12z"/><path fill="#0B0D0E" d="M5.55 12L5.55 7.249 5.61 7.249 7.492 11.964 8.508 11.964 10.39 7.266 10.45 7.266 10.45 12 11.942 12 11.942 4.727 10.045 4.727 8.043 9.614 7.957 9.614 5.955 4.727 4.058 4.727 4.058 12z"/></g></svg>