<svg xmlns="http://www.w3.org/2000/svg" width="16" height="16" viewBox="0 0 16 16">
    <g fill="none" fill-rule="evenodd">
        <g fill-rule="nonzero">
            <g>
                <g>
                    <g transform="translate(-672 -468) translate(88 460) translate(584 8)">
                        <rect width="16" height="16" fill="#ADB5BD" rx="2"/>
                        <path fill="#868E96" d="M0 13c0 1.054.816 1.918 1.85 1.995L2 15h12c1.054 0 1.918-.816 1.995-1.85L16 13v1c0 1.105-.895 2-2 2H2c-1.105 0-2-.895-2-2v-1z"/>
                        <path fill="#CED4DA" d="M14 0c1.105 0 2 .895 2 2v1c0-1.054-.816-1.918-1.85-1.995L14 1H2C.946 1 .082 1.816.005 2.85L0 3V2C0 .895.895 0 2 0h12z"/>
                    </g>
                    <path fill="#0B0D0E" d="M6.494 12L6.494 7.423 6.548 7.423 9.712 12 11.04 12 11.04 4.727 9.509 4.727 9.509 9.301 9.445 9.301 6.306 4.727 4.957 4.727 4.957 12z" transform="translate(-672 -468) translate(88 460) translate(584 8)"/>
                </g>
            </g>
        </g>
    </g>
</svg>
