<svg xmlns="http://www.w3.org/2000/svg" width="16" height="16"><g fill="none"><rect width="16" height="16" fill="#ADB5BD" rx="2"/><path fill="#868E96" d="M0 13a2 2 0 0 0 1.85 1.995L2 15h12a2 2 0 0 0 1.995-1.85L16 13v1a2 2 0 0 1-2 2H2a2 2 0 0 1-2-2v-1z"/><path fill="#CED4DA" d="M14 0a2 2 0 0 1 2 2v1a2 2 0 0 0-1.85-1.995L14 1H2A2 2 0 0 0 .005 2.85L0 3V2a2 2 0 0 1 2-2h12z"/><path fill="#0B0D0E" d="M8 12.1c1.928 0 3.406-1.357 3.406-3.736 0-2.38-1.478-3.736-3.406-3.736-1.939 0-3.406 1.356-3.406 3.736 0 2.368 1.467 3.735 3.406 3.735zm0-1.36c-1.119 0-1.847-.835-1.847-2.376 0-1.542.728-2.376 1.847-2.376 1.115 0 1.847.834 1.847 2.376 0 1.54-.732 2.375-1.847 2.375z"/></g></svg>