<svg xmlns="http://www.w3.org/2000/svg" width="16" height="16"><g fill="none"><rect width="16" height="16" fill="#ADB5BD" rx="2"/><path fill="#868E96" d="M0 13a2 2 0 0 0 1.85 1.995L2 15h12a2 2 0 0 0 1.995-1.85L16 13v1a2 2 0 0 1-2 2H2a2 2 0 0 1-2-2v-1z"/><path fill="#CED4DA" d="M14 0a2 2 0 0 1 2 2v1a2 2 0 0 0-1.85-1.995L14 1H2A2 2 0 0 0 .005 2.85L0 3V2a2 2 0 0 1 2-2h12z"/><path fill="#0B0D0E" d="M6.931 12V9.642h1.293c1.672 0 2.645-.998 2.645-2.45 0-1.446-.955-2.465-2.606-2.465h-2.87V12h1.538zm1.044-3.59H6.931V5.984h1.037c.888 0 1.318.483 1.318 1.208 0 .72-.43 1.218-1.31 1.218z"/></g></svg>