<svg xmlns="http://www.w3.org/2000/svg" width="16" height="16"><g fill="none"><rect width="16" height="16" fill="#ADB5BD" rx="2"/><path fill="#868E96" d="M0 13a2 2 0 0 0 1.85 1.995L2 15h12a2 2 0 0 0 1.995-1.85L16 13v1a2 2 0 0 1-2 2H2a2 2 0 0 1-2-2v-1z"/><path fill="#CED4DA" d="M14 0a2 2 0 0 1 2 2v1a2 2 0 0 0-1.85-1.995L14 1H2A2 2 0 0 0 .005 2.85L0 3V2a2 2 0 0 1 2-2h12z"/><path fill="#0B0D0E" d="M6.888 12V9.422h1.123L9.388 12h1.698L9.54 9.173c.828-.355 1.286-1.076 1.286-2.07 0-1.445-.956-2.376-2.607-2.376H5.35V12h1.538zm1.045-3.814H6.888V5.984h1.037c.888 0 1.318.395 1.318 1.119 0 .72-.43 1.083-1.31 1.083z"/></g></svg>