<svg xmlns="http://www.w3.org/2000/svg" width="16" height="16" viewBox="0 0 16 16">
    <g fill="none" fill-rule="evenodd">
        <g fill-rule="nonzero">
            <g>
                <g>
                    <g transform="translate(-323 -468) translate(88 460) translate(235 8)">
                        <rect width="16" height="16" fill="#ADB5BD" rx="2"/>
                        <path fill="#868E96" d="M0 13c0 1.054.816 1.918 1.85 1.995L2 15h12c1.054 0 1.918-.816 1.995-1.85L16 13v1c0 1.105-.895 2-2 2H2c-1.105 0-2-.895-2-2v-1z"/>
                        <path fill="#CED4DA" d="M14 0c1.105 0 2 .895 2 2v1c0-1.054-.816-1.918-1.85-1.995L14 1H2C.946 1 .082 1.816.005 2.85L0 3V2C0 .895.895 0 2 0h12z"/>
                    </g>
                    <path fill="#0B0D0E" d="M8.053 12.103c1.776 0 2.82-.849 2.823-2.18-.003-1.211-.916-1.854-2.18-2.138l-.653-.156c-.632-.146-1.162-.38-1.151-.902 0-.47.416-.814 1.168-.814.735 0 1.186.334 1.243.906h1.474c-.021-1.296-1.087-2.191-2.706-2.191-1.594 0-2.763.88-2.756 2.202-.003 1.072.753 1.686 1.982 1.981l.792.199c.792.192 1.232.419 1.236.909-.004.533-.508.895-1.29.895-.798 0-1.374-.37-1.423-1.097H5.124c.039 1.573 1.164 2.386 2.93 2.386z" transform="translate(-323 -468) translate(88 460) translate(235 8)"/>
                </g>
            </g>
        </g>
    </g>
</svg>
