<svg xmlns="http://www.w3.org/2000/svg" width="16" height="16" viewBox="0 0 16 16">
    <g fill="none" fill-rule="evenodd">
        <g fill-rule="nonzero">
            <g>
                <g>
                    <g transform="translate(-1185 -468) translate(88 460) translate(1097 8)">
                        <rect width="16" height="16" fill="#ADB5BD" rx="2"/>
                        <path fill="#868E96" d="M0 13c0 1.054.816 1.918 1.85 1.995L2 15h12c1.054 0 1.918-.816 1.995-1.85L16 13v1c0 1.105-.895 2-2 2H2c-1.105 0-2-.895-2-2v-1z"/>
                        <path fill="#CED4DA" d="M14 0c1.105 0 2 .895 2 2v1c0-1.054-.816-1.918-1.85-1.995L14 1H2C.946 1 .082 1.816.005 2.85L0 3V2C0 .895.895 0 2 0h12z"/>
                    </g>
                    <path fill="#0B0D0E" d="M8 12.103c1.808 0 3.015-1.062 3.015-2.653V4.727H9.477V9.32c0 .83-.582 1.431-1.477 1.431-.891 0-1.477-.6-1.477-1.431V4.727H4.985V9.45c0 1.591 1.2 2.653 3.015 2.653z" transform="translate(-1185 -468) translate(88 460) translate(1097 8)"/>
                </g>
            </g>
        </g>
    </g>
</svg>
