<svg xmlns="http://www.w3.org/2000/svg" width="16" height="16"><g fill="none"><rect width="16" height="16" fill="#ADB5BD" rx="2"/><path fill="#868E96" d="M0 13a2 2 0 0 0 1.85 1.995L2 15h12a2 2 0 0 0 1.995-1.85L16 13v1a2 2 0 0 1-2 2H2a2 2 0 0 1-2-2v-1z"/><path fill="#CED4DA" d="M14 0a2 2 0 0 1 2 2v1a2 2 0 0 0-1.85-1.995L14 1H2A2 2 0 0 0 .005 2.85L0 3V2a2 2 0 0 1 2-2h12z"/><path fill="#0B0D0E" d="M6.588 12L7.97 7.245 8.027 7.245 9.412 12 10.91 12 12.991 4.727 11.311 4.727 10.108 9.791 10.044 9.791 8.719 4.727 7.281 4.727 5.953 9.781 5.892 9.781 4.689 4.727 3.009 4.727 5.09 12z"/></g></svg>