<svg xmlns="http://www.w3.org/2000/svg" width="16" height="16" viewBox="0 0 16 16">
    <path fill="#FFF" d="M0 8c0 4.42 3.58 8 8 8s8-3.58 8-8-3.58-8-8-8-8 3.58-8 8zm8-6.968c3.829 0 6.968 3.1 6.968 6.968 0 3.829-3.1 6.968-6.968 6.968-3.829 0-6.968-3.1-6.968-6.968 0-3.829 3.1-6.968 6.968-6.968zm.403 2.984l3.713 3.71c.152.151.152.397 0 .548l-3.713 3.71c-.151.151-.397.151-.548 0l-.223-.223c-.151-.151-.151-.403.007-.551L10.4 8.548H4.258c-.213 0-.387-.174-.387-.387V7.84c0-.213.174-.387.387-.387h6.139L7.635 4.79c-.154-.151-.158-.4-.006-.551l.223-.223c.154-.151.4-.151.551 0z"/>
</svg>
