<svg xmlns="http://www.w3.org/2000/svg" width="280" height="193" viewBox="0 0 280 193">
    <defs>
        <linearGradient id="prefix__a" x1="50%" x2="50%" y1="0%" y2="100%">
            <stop offset="0%" stop-color="#329AF0"/>
            <stop offset="100%" stop-color="#1C7CD6"/>
        </linearGradient>
        <linearGradient id="prefix__b" x1="50%" x2="50%" y1="0%" y2="100%">
            <stop offset="0%" stop-color="#329AF0"/>
            <stop offset="100%" stop-color="#1C7CD6"/>
        </linearGradient>
        <linearGradient id="prefix__c" x1="50%" x2="50%" y1="0%" y2="100%">
            <stop offset="0%" stop-color="#329AF0"/>
            <stop offset="100%" stop-color="#1C7CD6"/>
        </linearGradient>
        <linearGradient id="prefix__d" x1="50%" x2="50%" y1="0%" y2="100%">
            <stop offset="0%" stop-color="#329AF0"/>
            <stop offset="100%" stop-color="#1C7CD6"/>
        </linearGradient>
        <linearGradient id="prefix__e" x1="50%" x2="50%" y1="0%" y2="100%">
            <stop offset="0%" stop-color="#329AF0"/>
            <stop offset="100%" stop-color="#1C7CD6"/>
        </linearGradient>
    </defs>
    <g fill="none">
        <path fill="#DA001D" d="M268 0c6.627 0 12 5.373 12 12v180h-4V12.19c0-4.438-3.448-8.051-7.75-8.186L268 4H12c-4.335 0-7.865 3.53-7.996 7.935L4 12.19V192H0V12C0 5.373 5.373 0 12 0h256z"/>
        <path fill="url(#prefix__a)" d="M100 102v40.001l.004.28c.04 1.463.394 2.847.998 4.088L61.044 192H8v-90l92-.001z"/>
        <path fill="url(#prefix__b)" d="M272.108 102.001v90h-53.336L179 146.581c.654-1.267 1.045-2.691 1.101-4.2l.007-.38V102l92 .001z"/>
        <path fill="url(#prefix__c)" d="M170 52c3.314 0 6 2.686 6 6v84c0 3.314-2.686 6-6 6h-60c-3.314 0-6-2.686-6-6V58c0-3.314 2.686-6 6-6h60z"/>
        <path fill="url(#prefix__d)" d="M176.584 150L214 192.473H66L103.416 150c1.68 1.47 3.854 2.387 6.242 2.467l.342.006h60l.28-.004c2.291-.063 4.39-.897 6.046-2.25l.258-.219z"/>
        <path fill="url(#prefix__e)" d="M266 8c3.314 0 6 2.686 6 6v84h-92V58l-.004-.28c-.146-5.3-4.416-9.57-9.716-9.716L170 48h-28V8h124zM138 8v40h-28l-.28.004c-5.3.146-9.57 4.416-9.716 9.716L100 58v40H8V14c0-3.314 2.686-6 6-6h124z"/>
    </g>
</svg>
