<svg xmlns="http://www.w3.org/2000/svg" width="16" height="16" viewBox="0 0 16 16">
    <path fill="#12B886" d="M7.79 7.506L.672 9.53c-.504.144-.563.835-.091 1.061l1.783.856-1.955 1.955c-.403.403-.403 1.057 0 1.46l.73.73c.202.2.466.302.73.302.264 0 .528-.101.73-.303l1.955-1.954.856 1.783c.105.218.308.323.511.323.237 0 .473-.143.55-.414l2.023-7.119c.122-.429-.275-.824-.704-.703zm-1.979 6.366l-.958-1.996-2.984 2.985-.73-.73 2.985-2.984-1.995-.959 5.145-1.462-1.463 5.146zM10.581 8c0-1.423-1.158-2.58-2.581-2.58-1.088 0-2.017.679-2.395 1.635 1.752-.499 2.03-.603 2.395-.603.854 0 1.548.694 1.548 1.548 0 .363-.1.627-.603 2.395.956-.378 1.636-1.307 1.636-2.395zm-2.455 5.278c2.865-.07 5.164-2.398 5.164-5.278 0-2.924-2.366-5.29-5.29-5.29-2.881 0-5.209 2.3-5.278 5.164l1.063-.302C4.004 5.427 5.8 3.742 8 3.742c2.348 0 4.258 1.91 4.258 4.258 0 2.201-1.685 3.996-3.83 4.215l-.302 1.063zM8 0C3.582 0 0 3.582 0 8c0 .235.015.467.035.698.112-.064.226-.125.355-.162l.66-.187c-.006-.116-.018-.231-.018-.349 0-3.842 3.126-6.968 6.968-6.968S14.968 4.158 14.968 8 11.842 14.968 8 14.968c-.118 0-.233-.012-.349-.018l-.187.66c-.037.13-.102.242-.166.354.232.02.465.036.702.036 4.418 0 8-3.582 8-8 0-4.419-3.582-8-8-8z"/>
</svg>
