<svg xmlns="http://www.w3.org/2000/svg" width="40" height="40" viewBox="0 0 40 40">
    <defs>
        <linearGradient id="prefix__a" x1="50%" x2="50%" y1="0%" y2="100%">
            <stop offset="0%" stop-color="#20C997"/>
            <stop offset="100%" stop-color="#12B886"/>
        </linearGradient>
    </defs>
    <g fill="none" transform="translate(4 4)">
        <circle cx="16" cy="16" r="18" fill="url(#prefix__a)" stroke="#FFF" stroke-width="4"/>
        <path fill="#FFF" d="M24 16c0-4.42-3.58-8-8-8s-8 3.58-8 8 3.58 8 8 8 8-3.58 8-8zm-8 6.968c-3.829 0-6.968-3.1-6.968-6.968 0-3.829 3.1-6.968 6.968-6.968 3.829 0 6.968 3.1 6.968 6.968 0 3.829-3.1 6.968-6.968 6.968zm-.403-2.984l-3.713-3.71c-.152-.151-.152-.397 0-.548l3.713-3.71c.151-.151.397-.151.548 0l.223.223c.151.151.151.403-.007.551l-2.758 2.662h6.139c.213 0 .387.174.387.387v.322c0 .213-.174.387-.387.387h-6.139l2.762 2.662c.154.151.158.4.006.551l-.223.223c-.154.151-.4.151-.551 0z"/>
    </g>
</svg>
