<svg xmlns="http://www.w3.org/2000/svg" width="16" height="15" viewBox="0 0 16 15">
    <path fill="#FFF" d="M14.88 7.239l-2.436 1.68v3.498l2.435 1.677c.473.325 1.12-.006 1.12-.573v-5.71c.001-.564-.645-.897-1.119-.572zM10.228 8H.444C.2 8 0 8.199 0 8.444v.89c0 .245.199.444.444.444h1.334v3.116c0 .734.594 1.328 1.328 1.328h7.122c.733 0 1.327-.594 1.328-1.328V9.328c0-.733-.595-1.328-1.328-1.328zm-.45-8c-1.35 0-2.509.76-3.111 1.867C6.064.76 4.905 0 3.556 0 1.592 0 0 1.592 0 3.556 0 5.519 1.592 7.11 3.556 7.11h6.222c1.963 0 3.555-1.592 3.555-3.555C13.333 1.592 11.741 0 9.778 0zM3.556 5.333c-.982 0-1.778-.796-1.778-1.777 0-.982.796-1.778 1.778-1.778.981 0 1.777.796 1.777 1.778 0 .981-.796 1.776-1.777 1.777zm6.222 0C8.796 5.333 8 4.537 8 3.556c0-.982.796-1.778 1.778-1.778s1.778.796 1.778 1.778c-.002.981-.797 1.776-1.778 1.777z"/>
</svg>
