<svg xmlns="http://www.w3.org/2000/svg" width="16" height="16" viewBox="0 0 16 16">
    <g fill="none" fill-rule="evenodd">
        <g fill="#0B0D0E" fill-rule="nonzero">
            <g>
                <g>
                    <path d="M8 10.71c-.499 0-.903.404-.903.903s.404.903.903.903.903-.404.903-.903S8.5 10.71 8 10.71zm.247-.775h-.516c-.213 0-.387-.173-.387-.387v-.012c0-2.269 2.498-2.052 2.498-3.465 0-.645-.573-1.297-1.853-1.297-.94 0-1.428.311-1.91.926-.126.16-.356.193-.524.076l-.423-.295c-.182-.126-.222-.38-.086-.554.685-.878 1.497-1.443 2.943-1.443 1.688 0 3.144.96 3.144 2.587 0 2.175-2.498 2.06-2.498 3.465v.012c0 .214-.174.387-.388.387zM8 1.032c3.826 0 6.968 3.1 6.968 6.968 0 3.848-3.117 6.968-6.968 6.968-3.847 0-6.968-3.115-6.968-6.968 0-3.845 3.116-6.968 6.968-6.968M8 0C3.582 0 0 3.583 0 8c0 4.42 3.582 8 8 8s8-3.58 8-8c0-4.417-3.582-8-8-8z" transform="translate(-977 -792) translate(801 748) translate(176 44)"/>
                </g>
            </g>
        </g>
    </g>
</svg>
