<svg xmlns="http://www.w3.org/2000/svg" width="20" height="16" viewBox="0 0 20 16">
    <g fill="none" fill-rule="evenodd">
        <g fill="#12B886" fill-rule="nonzero">
            <g>
                <g>
                    <g>
                        <path d="M19.462 10.98h-6.656c-.093 0-.18-.053-.224-.137l-.93-1.859 3.68-7.367c.122-.246.022-.545-.224-.67l-1.78-.892c-.247-.125-.547-.025-.671.224L9.98 5.635 7.304.276C7.183.03 6.88-.07 6.634.052L4.847.944c-.247.125-.346.424-.225.67l3.68 7.367-.929 1.86c-.044.083-.128.136-.224.136H.499c-.274 0-.499.225-.499.5v3.992c0 .274.225.499.499.499h5.81c1.136 0 2.171-.643 2.68-1.657l.992-1.983.991 1.983c.509 1.014 1.544 1.657 2.68 1.657h5.81c.274 0 .499-.225.499-.5V11.48c0-.274-.225-.499-.499-.499zM5.742 1.617l.892-.446 2.788 5.58-.558 1.117-3.122-6.25zM.998 14.973v-2.995h.998v2.995H.998zm7.099-1.104c-.34.68-1.023 1.104-1.784 1.104H2.994v-2.995h4.16c.478 0 .905-.265 1.117-.689l5.056-10.118.892.446L8.097 13.87zm5.554 1.104c-.76 0-1.444-.425-1.784-1.104l-1.325-2.655.558-1.116.596 1.188c.212.424.64.69 1.116.69h4.155v2.994H13.65v.003zm5.312 0h-.998v-2.995h.998v2.995z" transform="translate(-88 -16) translate(-160) translate(248 15) translate(0 1)"/>
                    </g>
                </g>
            </g>
        </g>
    </g>
</svg>
