<svg height="380" viewBox="0 0 760 380" width="760" xmlns="http://www.w3.org/2000/svg" xmlns:xlink="http://www.w3.org/1999/xlink"><defs><path id="a" d="m0 73.534 74.383-73.534h59.463l.154 192h-59l-75-73.707z"/><path id="b" d="m0 73.534 74.383-73.534h59.463l.154 192h-59l-75-73.707z"/><mask id="c" fill="#fff"><use fill="#fff" fill-rule="evenodd" xlink:href="#a"/></mask><mask id="d" fill="#fff"><use fill="#fff" fill-rule="evenodd" xlink:href="#b"/></mask><mask id="e" fill="#fff"><rect fill="#fff" fill-rule="evenodd" height="380" rx="102" width="760"/></mask></defs><g fill="none" fill-rule="evenodd"><rect fill="#fff" fill-rule="nonzero" height="380" rx="102" width="760"/><g fill="#343a40" fill-rule="nonzero" transform="translate(70 218)"><path d="m57 6c31.4802307 0 57 25.5197693 57 57s-25.5197693 57-57 57-57-25.5197693-57-57 25.5197693-57 57-57zm0 2c-30.3756612 0-55 24.6243388-55 55s24.6243388 55 55 55 55-24.6243388 55-55-24.6243388-55-55-55z"/><path d="m46 0v8h-2v-8zm24 0v8h-2v-8zm-24 118v8h-2v-8zm24 0v8h-2v-8z"/><path d="m47 56v-9h2v11h-15v-2z"/><path d="m47 70h-13v-2h15v11h-2z"/><path d="m67 56v-9h-2v11h15v-2z"/><path d="m67 70h13v-2h-15v11h2z"/><circle cx="57" cy="63" r="5"/></g><g fill="#343a40" fill-rule="nonzero" transform="translate(70 36)"><path d="m57 6c31.4802307 0 57 25.5197693 57 57s-25.5197693 57-57 57-57-25.5197693-57-57 25.5197693-57 57-57zm0 2c-30.3756612 0-55 24.6243388-55 55s24.6243388 55 55 55 55-24.6243388 55-55-24.6243388-55-55-55z"/><path d="m46 0v8h-2v-8zm24 0v8h-2v-8zm-24 118v8h-2v-8zm24 0v8h-2v-8z"/><path d="m47 56v-9h2v11h-15v-2z"/><path d="m47 70h-13v-2h15v11h-2z"/><path d="m67 56v-9h-2v11h15v-2z"/><path d="m67 70h13v-2h-15v11h2z"/><circle cx="57" cy="63" r="5"/></g><g fill="#343a40" fill-rule="nonzero" transform="translate(576 218)"><path d="m57 6c31.4802307 0 57 25.5197693 57 57s-25.5197693 57-57 57-57-25.5197693-57-57 25.5197693-57 57-57zm0 2c-30.3756612 0-55 24.6243388-55 55s24.6243388 55 55 55 55-24.6243388 55-55-24.6243388-55-55-55z"/><path d="m46 0v8h-2v-8zm24 0v8h-2v-8zm-24 118v8h-2v-8zm24 0v8h-2v-8zm-21-50v11h-2v-9h-13v-2zm31 0v2h-13v9h-2v-11zm-31-21v11h-15v-2h13v-9zm18 0v9h13v2h-15v-11z"/><circle cx="57" cy="63" r="5"/></g><g fill="#343a40" fill-rule="nonzero" transform="translate(576 36)"><path d="m57 6c31.4802307 0 57 25.5197693 57 57s-25.5197693 57-57 57-57-25.5197693-57-57 25.5197693-57 57-57zm0 2c-30.3756612 0-55 24.6243388-55 55s24.6243388 55 55 55 55-24.6243388 55-55-24.6243388-55-55-55z"/><path d="m46 0v8h-2v-8zm24 0v8h-2v-8zm-24 118v8h-2v-8zm24 0v8h-2v-8zm-21-50v11h-2v-9h-13v-2zm31 0v2h-13v9h-2v-11zm-31-21v11h-15v-2h13v-9zm18 0v9h13v2h-15v-11z"/><circle cx="57" cy="63" r="5"/></g><path d="m380 134c15.463973 0 29.463973 6.268014 39.59798 16.40202 10.134006 10.134007 16.40202 24.134007 16.40202 39.59798s-6.268014 29.463973-16.40202 39.59798c-10.134007 10.134006-24.134007 16.40202-39.59798 16.40202s-29.463973-6.268014-39.59798-16.40202c-10.134006-10.134007-16.40202-24.134007-16.40202-39.59798s6.268014-29.463973 16.40202-39.59798c10.134007-10.134006 24.134007-16.40202 39.59798-16.40202z" stroke="#343a40" stroke-width="2"/><g fill="#343a40"><circle cx="380" cy="190" fill-rule="nonzero" r="5"/><circle cx="309" cy="281" fill-rule="nonzero" r="5" transform="matrix(0 -1 1 0 28 590)"/><circle cx="309" cy="99" fill-rule="nonzero" r="5" transform="matrix(0 -1 1 0 210 408)"/><circle cx="451" cy="281" fill-rule="nonzero" r="5" transform="matrix(0 -1 1 0 170 732)"/><circle cx="451" cy="99" fill-rule="nonzero" r="5" transform="matrix(0 -1 1 0 352 550)"/><path d="m286 380v-380h4v380z" fill-rule="nonzero"/><path d="m470 380v-380h4v380z" fill-rule="nonzero"/><path d="m378 380v-380h4v380z" fill-rule="nonzero"/><path d="m50 206v-32h16.7845906c4.4388813 4.281891 7.2154094 9.87739 7.2154094 16s-2.7765281 11.718109-7.2154094 16z"/><path d="m43.6666667 174c.4552383 0 .9100864.02545 1.3622109.076221l6.9711224.782808v30.280871l-6.9711224.782808c-6.3992501.718591-12.1967499-3.65386-12.9490782-9.766143-.053154-.431849-.0797994-.8663-.0797994-1.301124v-9.711953c0-6.154378 5.2233446-11.143488 11.6666667-11.143488zm0 2c-5.2647441 0-9.5151886 3.971616-9.6627065 8.879678l-.0039602.26381v9.711953c0 .353139.0216411.705995.0648196 1.056799.6051362 4.916422 5.2449727 8.494015 10.4609176 8.050577l.2799571-.027617 5.1943057-.5842v-26.704l-5.1943057-.583271c-.2520067-.028298-.5050477-.04719-.7585351-.056639z" fill-rule="nonzero"/><path d="m50.1666667 175c.2341082 0 .4681305.007689.701552.023049l1.1317813.074477v29.822195l-1.2854702.065983c-5.0535601.2594-9.3955666-3.042441-9.6981431-7.374868-.010922-.156386-.0163867-.313018-.0163867-.469684v-14.282551c0-4.340186 4.1040565-7.858601 9.1666667-7.858601zm-.1666667 2.002-.0942784.001801c-3.8083277.111161-6.7714699 2.645663-6.9012844 5.649302l-.0044372.205498v14.282551c0 .11017.0038432.220326.0115268.330344.2071674 2.966315 3.1510854 5.388173 6.8221744 5.522679l.1662988.002825z" fill-rule="nonzero"/><path d="m710 206v-32h-16.784591c-4.438881 4.281891-7.215409 9.87739-7.215409 16s2.776528 11.718109 7.215409 16z"/><path d="m719.666667 174c.455238 0 .910086.02545 1.362211.076221l6.971122.782808v30.280871l-6.971122.782808c-6.399251.718591-12.19675-3.65386-12.949079-9.766143-.053154-.431849-.079799-.8663-.079799-1.301124v-9.711953c0-6.154378 5.223345-11.143488 11.666667-11.143488zm0 2c-5.264744 0-9.515189 3.971616-9.662707 8.879678l-.00396.26381v9.711953c0 .353139.021641.705995.06482 1.056799.605136 4.916422 5.244972 8.494015 10.460917 8.050577l.279957-.027617 5.194306-.5842v-26.704l-5.194306-.583271c-.252006-.028298-.505047-.04719-.758535-.056639z" fill-rule="nonzero" transform="matrix(-1 0 0 1 1436 0)"/><path d="m717.166667 175c.234108 0 .46813.007689.701552.023049l1.131781.074477v29.822195l-1.28547.065983c-5.05356.2594-9.395567-3.042441-9.698143-7.374868-.010922-.156386-.016387-.313018-.016387-.469684v-14.282551c0-4.340186 4.104056-7.858601 9.166667-7.858601zm-.166667 2.002-.094278.001801c-3.808328.111161-6.77147 2.645663-6.901285 5.649302l-.004437.205498v14.282551c0 .11017.003843.220326.011527.330344.207167 2.966315 3.151085 5.388173 6.822174 5.522679l.166299.002825z" fill-rule="nonzero" transform="matrix(-1 0 0 1 1427 0)"/></g><g fill="#f03e3e" fill-rule="nonzero" transform="translate(50 94)"><use fill-opacity=".101" xlink:href="#a"/><path d="m32.413 42.019 68.068 53.894-68.068 53.895-32.413-31.127v-45.535z" fill-opacity=".104" mask="url(#c)"/></g><g fill="#f03e3e" fill-rule="nonzero" transform="matrix(-1 0 0 1 710 94)"><use fill-opacity=".101" xlink:href="#b"/><path d="m32.413 42.019 68.068 53.894-68.068 53.895-32.413-31.127v-45.535z" fill-opacity=".104" mask="url(#d)"/></g><path d="m8 16c-4.41935484 0-8-3.5806452-8-8 0-4.41935484 3.58064516-8 8-8 4.4193548 0 8 3.58064516 8 8 0 4.4193548-3.5806452 8-8 8zm3.7419355-9.41935484h-3.7419355v-2.28709677c0-.34516129-.41935484-.51935484-.66129032-.27419355l-3.68709678 3.70645161c-.1516129.1516129-.1516129.39354839 0 .54516129l3.68709678 3.70645166c.24516129.2451612.66129032.0709677.66129032-.2741936v-2.28387096h3.7419355c.2129032 0 .3870968-.17419355.3870968-.38709678v-2.06451612c0-.21290323-.1741936-.38709678-.3870968-.38709678z" fill="#343a40" fill-rule="nonzero" transform="translate(508 182)"/><path d="m8 0c4.4193548 0 8 3.58064516 8 8 0 4.4193548-3.5806452 8-8 8-4.41935484 0-8-3.5806452-8-8 0-4.41935484 3.58064516-8 8-8zm-3.74193548 9.41935484h3.74193548v2.28709676c0 .3451613.41935484.5193549.66129032.2741936l3.68709678-3.70645165c.1516129-.1516129.1516129-.39354839 0-.54516129l-3.68709678-3.70967742c-.24516129-.24516129-.66129032-.07096774-.66129032.27419355v2.28709677h-3.74193548c-.21290323 0-.38709678.17419355-.38709678.38709678v2.06451612c0 .21290323.17419355.38709678.38709678.38709678z" fill="#343a40" fill-rule="nonzero" transform="translate(236 182)"/><path d="m50 380v-380h2v380z" fill="#343a40" fill-rule="nonzero" mask="url(#e)"/><path d="m708 380v-380h2v380z" fill="#343a40" fill-rule="nonzero" mask="url(#e)"/></g></svg>