<?xml version="1.0" encoding="UTF-8"?>
<svg width="624px" height="312px" viewBox="0 0 624 312" version="1.1" xmlns="http://www.w3.org/2000/svg" xmlns:xlink="http://www.w3.org/1999/xlink">
    <title>hriste-634x312</title>
    <defs>
        <rect id="path-1" x="0" y="0" width="624" height="312" rx="83.2"></rect>
        <polygon id="path-3" points="0 60.375 63.5359252 0 114 0 114 157.5 63.5359252 157.5 0 97.125"></polygon>
        <polygon id="path-5" points="0 60.375 63.5359252 0 114 0 114 157.5 63.5359252 157.5 0 97.125"></polygon>
    </defs>
    <g id="Page-1" stroke="none" stroke-width="1" fill="none" fill-rule="evenodd">
        <g id="hriste-634x312">
            <rect id="hriste-zaklad" stroke="#343A40" stroke-width="1.5" fill="#FFFFFF" fill-rule="nonzero" x="0.75" y="0.75" width="622.5" height="310.5" rx="83.2"></rect>
            <g id="net-lines">
                <mask id="mask-2" fill="white">
                    <use xlink:href="#path-1"></use>
                </mask>
                <g id="Mask" fill-rule="nonzero"></g>
                <polygon id="brankova" fill="#343A40" fill-rule="nonzero" mask="url(#mask-2)" points="42 312 42 0 43.5 0 43.5 312"></polygon>
                <polygon id="brankova" fill="#343A40" fill-rule="nonzero" mask="url(#mask-2)" points="582 312 580.5 312 580.5 0 582 0"></polygon>
            </g>
            <g id="Group-22" transform="translate(58.500000, 177.000000)" fill-rule="nonzero">
                <path d="M48.75,6 C62.004834,6 74.004834,11.372583 82.6911255,20.0588745 C91.377417,28.745166 96.75,40.745166 96.75,54 C96.75,67.254834 91.377417,79.254834 82.6911255,87.9411255 C74.004834,96.627417 62.004834,102 48.75,102 C35.495166,102 23.495166,96.627417 14.8088745,87.9411255 C6.122583,79.254834 0.75,67.254834 0.75,54 C0.75,40.745166 6.122583,28.745166 14.8088745,20.0588745 C23.495166,11.372583 35.495166,6 48.75,6 L48.75,6 Z" id="Path" stroke="#343A40" stroke-width="1.5"></path>
                <path d="M39.75,101.25 L39.75,108 L38.25,108 L38.25,101.25 L39.75,101.25 Z M59.25,101.25 L59.25,108 L57.75,108 L57.75,101.25 L59.25,101.25 Z" id="Combined-Shape" fill="#343A40"></path>
                <path d="M39.75,0 L39.75,6.75 L38.25,6.75 L38.25,0 L39.75,0 Z M59.25,0 L59.25,6.75 L57.75,6.75 L57.75,0 L59.25,0 Z" id="Combined-Shape" fill="#343A40"></path>
                <polygon id="Path" fill="#343A40" points="40.5 49.5 40.5 42 42 42 42 51 30 51 30 49.5"></polygon>
                <polygon id="Path" fill="#343A40" points="40.5 58.5 30 58.5 30 57 42 57 42 66 40.5 66"></polygon>
                <polygon id="Path" fill="#343A40" points="57 49.5 57 42 55.5 42 55.5 51 67.5 51 67.5 49.5"></polygon>
                <polygon id="Path" fill="#343A40" points="57 58.5 67.5 58.5 67.5 57 55.5 57 55.5 66 57 66"></polygon>
                <circle id="Oval" fill="#343A40" cx="48.75" cy="54" r="3.75"></circle>
            </g>
            <g id="Group-22" transform="translate(58.500000, 27.000000)" fill-rule="nonzero">
                <path d="M48.75,6 C62.004834,6 74.004834,11.372583 82.6911255,20.0588745 C91.377417,28.745166 96.75,40.745166 96.75,54 C96.75,67.254834 91.377417,79.254834 82.6911255,87.9411255 C74.004834,96.627417 62.004834,102 48.75,102 C35.495166,102 23.495166,96.627417 14.8088745,87.9411255 C6.122583,79.254834 0.75,67.254834 0.75,54 C0.75,40.745166 6.122583,28.745166 14.8088745,20.0588745 C23.495166,11.372583 35.495166,6 48.75,6 L48.75,6 Z" id="Path" stroke="#343A40" stroke-width="1.5"></path>
                <path d="M39.75,101.25 L39.75,108 L38.25,108 L38.25,101.25 L39.75,101.25 Z M59.25,101.25 L59.25,108 L57.75,108 L57.75,101.25 L59.25,101.25 Z" id="Combined-Shape" fill="#343A40"></path>
                <path d="M39.75,0 L39.75,6.75 L38.25,6.75 L38.25,0 L39.75,0 Z M59.25,0 L59.25,6.75 L57.75,6.75 L57.75,0 L59.25,0 Z" id="Combined-Shape" fill="#343A40"></path>
                <path d="M42,57 L42,66 L40.5,66 L40.5,58.5 L30,58.5 L30,57 L42,57 Z M67.5,57 L67.5,58.5 L57,58.5 L57,66 L55.5,66 L55.5,57 L67.5,57 Z M42,42 L42,51 L30,51 L30,49.5 L40.5,49.5 L40.5,42 L42,42 Z M57,42 L57,49.5 L67.5,49.5 L67.5,51 L55.5,51 L55.5,42 L57,42 Z" id="Combined-Shape" fill="#343A40"></path>
                <circle id="Oval" fill="#343A40" cx="48.75" cy="54" r="3.75"></circle>
            </g>
            <g id="Group-22" transform="translate(468.000000, 177.000000)" fill-rule="nonzero">
                <path d="M48.75,6 C62.004834,6 74.004834,11.372583 82.6911255,20.0588745 C91.377417,28.745166 96.75,40.745166 96.75,54 C96.75,67.254834 91.377417,79.254834 82.6911255,87.9411255 C74.004834,96.627417 62.004834,102 48.75,102 C35.495166,102 23.495166,96.627417 14.8088745,87.9411255 C6.122583,79.254834 0.75,67.254834 0.75,54 C0.75,40.745166 6.122583,28.745166 14.8088745,20.0588745 C23.495166,11.372583 35.495166,6 48.75,6 L48.75,6 Z" id="Path" stroke="#343A40" stroke-width="1.5"></path>
                <path d="M39.75,101.25 L39.75,108 L38.25,108 L38.25,101.25 L39.75,101.25 Z M59.25,101.25 L59.25,108 L57.75,108 L57.75,101.25 L59.25,101.25 Z" id="Combined-Shape" fill="#343A40"></path>
                <path d="M39.75,0 L39.75,6.75 L38.25,6.75 L38.25,0 L39.75,0 Z M59.25,0 L59.25,6.75 L57.75,6.75 L57.75,0 L59.25,0 Z" id="Combined-Shape" fill="#343A40"></path>
                <polygon id="Path" fill="#343A40" points="40.5 49.5 40.5 42 42 42 42 51 30 51 30 49.5"></polygon>
                <polygon id="Path" fill="#343A40" points="40.5 58.5 30 58.5 30 57 42 57 42 66 40.5 66"></polygon>
                <polygon id="Path" fill="#343A40" points="57 49.5 57 42 55.5 42 55.5 51 67.5 51 67.5 49.5"></polygon>
                <polygon id="Path" fill="#343A40" points="57 58.5 67.5 58.5 67.5 57 55.5 57 55.5 66 57 66"></polygon>
                <circle id="Oval" fill="#343A40" cx="48.75" cy="54" r="3.75"></circle>
            </g>
            <g id="Group-22" transform="translate(468.000000, 27.000000)" fill-rule="nonzero">
                <path d="M48.75,6 C62.004834,6 74.004834,11.372583 82.6911255,20.0588745 C91.377417,28.745166 96.75,40.745166 96.75,54 C96.75,67.254834 91.377417,79.254834 82.6911255,87.9411255 C74.004834,96.627417 62.004834,102 48.75,102 C35.495166,102 23.495166,96.627417 14.8088745,87.9411255 C6.122583,79.254834 0.75,67.254834 0.75,54 C0.75,40.745166 6.122583,28.745166 14.8088745,20.0588745 C23.495166,11.372583 35.495166,6 48.75,6 L48.75,6 Z" id="Path" stroke="#343A40" stroke-width="1.5"></path>
                <path d="M39.75,101.25 L39.75,108 L38.25,108 L38.25,101.25 L39.75,101.25 Z M59.25,101.25 L59.25,108 L57.75,108 L57.75,101.25 L59.25,101.25 Z" id="Combined-Shape" fill="#343A40"></path>
                <path d="M39.75,0 L39.75,6.75 L38.25,6.75 L38.25,0 L39.75,0 Z M59.25,0 L59.25,6.75 L57.75,6.75 L57.75,0 L59.25,0 Z" id="Combined-Shape" fill="#343A40"></path>
                <path d="M42,57 L42,66 L40.5,66 L40.5,58.5 L30,58.5 L30,57 L42,57 Z M67.5,57 L67.5,58.5 L57,58.5 L57,66 L55.5,66 L55.5,57 L67.5,57 Z M42,42 L42,51 L30,51 L30,49.5 L40.5,49.5 L40.5,42 L42,42 Z M57,42 L57,49.5 L67.5,49.5 L67.5,51 L55.5,51 L55.5,42 L57,42 Z" id="Combined-Shape" fill="#343A40"></path>
                <circle id="Oval" fill="#343A40" cx="48.75" cy="54" r="3.75"></circle>
            </g>
            <path d="M312,108 C325.254834,108 337.254834,113.372583 345.941125,122.058875 C354.627417,130.745166 360,142.745166 360,156 C360,169.254834 354.627417,181.254834 345.941125,189.941125 C337.254834,198.627417 325.254834,204 312,204 C298.745166,204 286.745166,198.627417 278.058875,189.941125 C269.372583,181.254834 264,169.254834 264,156 C264,142.745166 269.372583,130.745166 278.058875,122.058875 C286.745166,113.372583 298.745166,108 312,108 L312,108 Z" id="Path" stroke="#343A40" stroke-width="1.5" fill-rule="nonzero"></path>
            <circle id="buly" fill="#343A40" fill-rule="nonzero" cx="312" cy="156" r="3.75"></circle>
            <circle id="buly" fill="#343A40" fill-rule="nonzero" transform="translate(253.750000, 231.000000) rotate(-810.000000) translate(-253.750000, -231.000000) " cx="253.75" cy="231" r="3.75"></circle>
            <circle id="buly" fill="#343A40" fill-rule="nonzero" transform="translate(253.750000, 81.000000) rotate(-810.000000) translate(-253.750000, -81.000000) " cx="253.75" cy="81" r="3.75"></circle>
            <circle id="buly" fill="#343A40" fill-rule="nonzero" transform="translate(370.250000, 231.000000) rotate(-810.000000) translate(-370.250000, -231.000000) " cx="370.25" cy="231" r="3.75"></circle>
            <circle id="buly" fill="#343A40" fill-rule="nonzero" transform="translate(370.250000, 81.000000) rotate(-810.000000) translate(-370.250000, -81.000000) " cx="370.25" cy="81" r="3.75"></circle>
            <polygon id="blueline" fill="#343A40" fill-rule="nonzero" points="236.5 312 236.5 0 239.5 0 239.5 312"></polygon>
            <polygon id="blueline" fill="#343A40" fill-rule="nonzero" points="384.5 312 384.5 0 387.5 0 387.5 312"></polygon>
            <polygon id="blueline" fill="#343A40" fill-rule="nonzero" points="310.5 312 310.5 0 313.5 0 313.5 312"></polygon>
            <g id="Group-23" transform="translate(27.750000, 142.500000)">
                <path d="M15,27 L15,0 L28.6374799,0 C32.2440709,3.61284542 34.5,8.3340481 34.5,13.5 C34.5,18.6659519 32.2440709,23.3871546 28.6374799,27 L15,27 Z" id="brankoviste-L" fill="#343A40"></path>
                <path d="M9.625,0.75 C9.97197441,0.75 10.3186515,0.769837999 10.6632526,0.809413757 L10.6632526,0.809413757 L15.75,1.39360183 L15.75,25.6054946 L10.6632526,26.1896826 C8.22624853,26.4695606 5.90338876,25.7590036 4.11838126,24.3821615 C2.34026426,23.0106344 1.09595751,20.977213 0.810461324,18.6049863 C0.770188883,18.2703571 0.75,17.9337122 0.75,17.5967783 L0.75,17.5967783 L0.75,9.40231805 C0.75,7.01501646 1.74195656,4.85455774 3.34318483,3.29037514 C4.95084153,1.71991285 7.17219183,0.75 9.625,0.75 Z" id="Path" stroke="#343A40" stroke-width="1.5" fill-rule="nonzero"></path>
                <path d="M15,1.5 C15.1744731,1.5 15.3488822,1.50595236 15.5228436,1.51784504 L15.5228436,1.51784504 L15.75,25.470692 C13.5345392,25.5888341 11.7904371,25.0075548 10.4880704,23.9786669 C9.22622113,22.9817883 8.37954012,21.5617558 8.26337949,19.9428116 L8.26337949,19.9428116 L8.25,7.42981061 C8.25,5.80127524 8.99922077,4.33201429 10.1955201,3.26654057 C11.4250937,2.17143137 13.1252805,1.5 15,1.5 Z" id="Path" stroke="#343A40" stroke-width="1.5" fill-rule="nonzero"></path>
            </g>
            <g id="Group-23" transform="translate(579.500000, 156.000000) scale(-1, 1) translate(-579.500000, -156.000000) translate(562.000000, 142.500000)">
                <path d="M15,27 L15,0 L28.6374799,0 C32.2440709,3.61284542 34.5,8.3340481 34.5,13.5 C34.5,18.6659519 32.2440709,23.3871546 28.6374799,27 L15,27 Z" id="brankoviste-L" fill="#343A40"></path>
                <path d="M9.625,0.75 C9.97197441,0.75 10.3186515,0.769837999 10.6632526,0.809413757 L10.6632526,0.809413757 L15.75,1.39360183 L15.75,25.6054946 L10.6632526,26.1896826 C8.22624853,26.4695606 5.90338876,25.7590036 4.11838126,24.3821615 C2.34026426,23.0106344 1.09595751,20.977213 0.810461324,18.6049863 C0.770188883,18.2703571 0.75,17.9337122 0.75,17.5967783 L0.75,17.5967783 L0.75,9.40231805 C0.75,7.01501646 1.74195656,4.85455774 3.34318483,3.29037514 C4.95084153,1.71991285 7.17219183,0.75 9.625,0.75 Z" id="Path" stroke="#343A40" stroke-width="1.5" fill-rule="nonzero"></path>
                <path d="M15,1.5 C15.1744731,1.5 15.3488822,1.50595236 15.5228436,1.51784504 L15.5228436,1.51784504 L15.75,25.470692 C13.5345392,25.5888341 11.7904371,25.0075548 10.4880704,23.9786669 C9.22622113,22.9817883 8.37954012,21.5617558 8.26337949,19.9428116 L8.26337949,19.9428116 L8.25,7.42981061 C8.25,5.80127524 8.99922077,4.33201429 10.1955201,3.26654057 C11.4250937,2.17143137 13.1252805,1.5 15,1.5 Z" id="Path" stroke="#343A40" stroke-width="1.5" fill-rule="nonzero"></path>
            </g>
            <g id="zona" transform="translate(42.000000, 77.250000)">
                <mask id="mask-4" fill="white">
                    <use xlink:href="#path-3"></use>
                </mask>
                <use id="Mask" fill-opacity="0.100715691" fill="#F03E3E" fill-rule="nonzero" xlink:href="#path-3"></use>
                <polygon id="Path" fill-opacity="0.104147" fill="#F03E3E" fill-rule="nonzero" mask="url(#mask-4)" points="26.6129032 34.5 82.5 78.75 26.6129032 123 0 97.4431075 0 60.0568925"></polygon>
            </g>
            <g id="zona" transform="translate(525.000000, 156.250000) scale(-1, 1) translate(-525.000000, -156.250000) translate(468.000000, 77.250000)">
                <mask id="mask-6" fill="white">
                    <use xlink:href="#path-5"></use>
                </mask>
                <use id="Mask" fill-opacity="0.100715691" fill="#F03E3E" fill-rule="nonzero" xlink:href="#path-5"></use>
                <polygon id="Path" fill-opacity="0.104147" fill="#F03E3E" fill-rule="nonzero" mask="url(#mask-6)" points="26.6129032 34.5 82.5 78.75 26.6129032 123 0 97.4431075 0 60.0568925"></polygon>
            </g>
        </g>
    </g>
</svg>