<svg xmlns="http://www.w3.org/2000/svg" xmlns:xlink="http://www.w3.org/1999/xlink" width="760" height="380"><defs><rect id="a" width="760" height="380" rx="102"/><path id="c" d="M0 73.534L79.383 0 139.846 0 139.846 191.827 79.383 191.827 0 118.293z"/><path id="e" d="M0 73.534L79.383 0 139.846 0 139.846 191.827 79.383 191.827 0 118.293z"/></defs><g fill="none" fill-rule="evenodd"><rect width="760" height="380" fill="#FFF" fill-rule="nonzero" rx="102"/><mask id="b" fill="#fff"><use xlink:href="#a"/></mask><path fill="#343A40" fill-rule="nonzero" mask="url(#b)" d="M50 380L50 0 52 0 52 380z"/><path fill="#343A40" fill-rule="nonzero" mask="url(#b)" d="M708 380L708 0 710 0 710 380z"/><g fill-rule="nonzero" transform="translate(72 34)"><path stroke="#343A40" stroke-width="1.827" d="M59 6.913c16.04 0 30.562 6.502 41.073 17.014C110.585 34.438 117.087 48.96 117.087 65s-6.502 30.562-17.014 41.073C89.562 116.585 75.04 123.087 59 123.087s-30.562-6.502-41.073-17.014C7.415 95.562.913 81.04.913 65s6.502-30.562 17.014-41.073C28.438 13.415 42.96 6.913 59 6.913z"/><path fill="#343A40" d="M48 0v8h-2V0h2zm24 0v8h-2V0h2zM48 122v8h-2v-8h2zm24 0v8h-2v-8h2zM51 69v11h-2v-9H36v-2h15zm31 0v2H69v9h-2V69h15zM51 50v11H36v-2h13v-9h2zm18 0v9h13v2H67V50h2z"/><circle cx="59" cy="65" r="5" fill="#343A40"/></g><g fill-rule="nonzero" transform="translate(72 216)"><path stroke="#343A40" stroke-width="1.827" d="M59 6.913c16.04 0 30.562 6.502 41.073 17.014C110.585 34.438 117.087 48.96 117.087 65s-6.502 30.562-17.014 41.073C89.562 116.585 75.04 123.087 59 123.087s-30.562-6.502-41.073-17.014C7.415 95.562.913 81.04.913 65s6.502-30.562 17.014-41.073C28.438 13.415 42.96 6.913 59 6.913z"/><path fill="#343A40" d="M48 0v8h-2V0h2zm24 0v8h-2V0h2zM48 122v8h-2v-8h2zm24 0v8h-2v-8h2zM51 69v11h-2v-9H36v-2h15zm31 0v2H69v9h-2V69h15zM51 50v11H36v-2h13v-9h2zm18 0v9h13v2H67V50h2z"/><circle cx="59" cy="65" r="5" fill="#343A40"/></g><g fill-rule="nonzero" transform="translate(570 34)"><path stroke="#343A40" stroke-width="1.827" d="M59 6.913c16.04 0 30.562 6.502 41.073 17.014C110.585 34.438 117.087 48.96 117.087 65s-6.502 30.562-17.014 41.073C89.562 116.585 75.04 123.087 59 123.087s-30.562-6.502-41.073-17.014C7.415 95.562.913 81.04.913 65s6.502-30.562 17.014-41.073C28.438 13.415 42.96 6.913 59 6.913z"/><path fill="#343A40" d="M48 0v8h-2V0h2zm24 0v8h-2V0h2zM48 122v8h-2v-8h2zm24 0v8h-2v-8h2zM51 69v11h-2v-9H36v-2h15zm31 0v2H69v9h-2V69h15zM51 50v11H36v-2h13v-9h2zm18 0v9h13v2H67V50h2z"/><circle cx="59" cy="65" r="5" fill="#343A40"/></g><g fill-rule="nonzero" transform="translate(570 216)"><path stroke="#343A40" stroke-width="1.827" d="M59 6.913c16.04 0 30.562 6.502 41.073 17.014C110.585 34.438 117.087 48.96 117.087 65s-6.502 30.562-17.014 41.073C89.562 116.585 75.04 123.087 59 123.087s-30.562-6.502-41.073-17.014C7.415 95.562.913 81.04.913 65s6.502-30.562 17.014-41.073C28.438 13.415 42.96 6.913 59 6.913z"/><path fill="#343A40" d="M48 0v8h-2V0h2zm24 0v8h-2V0h2zM48 122v8h-2v-8h2zm24 0v8h-2v-8h2zM51 69v11h-2v-9H36v-2h15zm31 0v2H69v9h-2V69h15zM51 50v11H36v-2h13v-9h2zm18 0v9h13v2H67V50h2z"/><circle cx="59" cy="65" r="5" fill="#343A40"/></g><path stroke="#343A40" stroke-width="1.827" d="M380 131.913c16.04 0 30.562 6.502 41.073 17.014 10.512 10.511 17.014 25.033 17.014 41.073s-6.502 30.562-17.014 41.073c-10.511 10.512-25.033 17.014-41.073 17.014s-30.562-6.502-41.073-17.014c-10.512-10.511-17.014-25.033-17.014-41.073s6.502-30.562 17.014-41.073c10.511-10.512 25.033-17.014 41.073-17.014z"/><circle cx="380" cy="190" r="5" fill="#343A40" fill-rule="nonzero"/><circle cx="288" cy="281" r="5" fill="#343A40" fill-rule="nonzero" transform="rotate(-90 288 281)"/><circle cx="288" cy="99" r="5" fill="#343A40" fill-rule="nonzero" transform="rotate(-90 288 99)"/><circle cx="471" cy="281" r="5" fill="#343A40" fill-rule="nonzero" transform="rotate(-90 471 281)"/><circle cx="470" cy="99" r="5" fill="#343A40" fill-rule="nonzero" transform="rotate(-90 470 99)"/><path fill="#343A40" fill-rule="nonzero" d="M268 380L268 0 272 0 272 380z"/><path fill="#343A40" fill-rule="nonzero" d="M488 380L488 0 492 0 492 380z"/><path fill="#343A40" fill-rule="nonzero" d="M378 380L378 0 382 0 382 380z"/><path fill="#343A40" d="M50 206v-32h16.785c4.438 4.282 7.215 9.877 7.215 16 0 6.123-2.777 11.718-7.215 16H50z"/><path stroke="#343A40" stroke-width="2" d="M43.667 175c.418 0 .835.023 1.25.07l6.083.683v28.493l-6.083.683c-2.933.33-5.73-.506-7.878-2.126-2.13-1.607-3.624-3.988-3.967-6.769a9.65 9.65 0 0 1-.072-1.179v-9.712c0-2.796 1.19-5.325 3.108-7.156 1.934-1.848 4.608-2.987 7.559-2.987z"/><path stroke="#343A40" stroke-width="2" d="M50.167 176c.212 0 .424.007.636.02L51 203.97c-2.611.134-4.73-.543-6.31-1.746-1.512-1.149-2.533-2.782-2.674-4.65L42 182.86c0-1.88.904-3.57 2.336-4.798 1.492-1.28 3.556-2.061 5.83-2.061z"/><path fill="#343A40" d="M710 206v-32h-16.785c-4.438 4.282-7.215 9.877-7.215 16 0 6.123 2.777 11.718 7.215 16H710z"/><path stroke="#343A40" stroke-width="2" d="M716.333 175c-.418 0-.835.023-1.25.07l-6.083.683v28.493l6.083.683c2.933.33 5.73-.506 7.878-2.126 2.13-1.607 3.624-3.988 3.967-6.769a9.65 9.65 0 0 0 .072-1.179v-9.712c0-2.796-1.19-5.325-3.108-7.156-1.934-1.848-4.608-2.987-7.559-2.987z"/><path stroke="#343A40" stroke-width="2" d="M709.833 176c-.212 0-.424.007-.636.02L709 203.97c2.611.134 4.73-.543 6.31-1.746 1.512-1.149 2.533-2.782 2.674-4.65L718 182.86c0-1.88-.904-3.57-2.336-4.798-1.492-1.28-3.556-2.061-5.83-2.061z"/><g transform="translate(50 94)"><mask id="d" fill="#fff"><use xlink:href="#c"/></mask><use fill="#F03E3E" fill-opacity=".101" fill-rule="nonzero" xlink:href="#c"/><path fill="#F03E3E" fill-opacity=".104" fill-rule="nonzero" mask="url(#d)" d="M32.413 42.019L100.481 95.913 32.413 149.808 0 118.681 0 73.146z"/></g><g transform="matrix(-1 0 0 1 710 94)"><mask id="f" fill="#fff"><use xlink:href="#e"/></mask><use fill="#F03E3E" fill-opacity=".101" fill-rule="nonzero" xlink:href="#e"/><path fill="#F03E3E" fill-opacity=".104" fill-rule="nonzero" mask="url(#f)" d="M32.413 42.019L100.481 95.913 32.413 149.808 0 118.681 0 73.146z"/></g><path fill="#343A40" fill-rule="nonzero" d="M516 198c-4.42 0-8-3.58-8-8s3.58-8 8-8 8 3.58 8 8-3.58 8-8 8zm3.742-9.42H516v-2.286c0-.346-.42-.52-.661-.275l-3.687 3.707a.384.384 0 0 0 0 .545l3.687 3.706a.387.387 0 0 0 .661-.274v-2.284h3.742a.388.388 0 0 0 .387-.387v-2.064a.388.388 0 0 0-.387-.387z"/><path fill="#343A40" fill-rule="nonzero" d="M244 182c4.42 0 8 3.58 8 8s-3.58 8-8 8-8-3.58-8-8 3.58-8 8-8zm-3.742 9.42H244v2.286c0 .346.42.52.661.275l3.687-3.707a.384.384 0 0 0 0-.545l-3.687-3.71a.387.387 0 0 0-.661.275v2.287h-3.742a.388.388 0 0 0-.387.387v2.064c0 .213.174.387.387.387z"/></g></svg>