<svg xmlns="http://www.w3.org/2000/svg" xmlns:xlink="http://www.w3.org/1999/xlink" width="624" height="312" viewBox="0 0 624 312">
    <defs>
        <path id="prefix__c" d="M0 60.375L63.536 0 114 0 114 157.5 63.536 157.5 0 97.125z"/>
        <path id="prefix__e" d="M0 60.375L63.536 0 114 0 114 157.5 63.536 157.5 0 97.125z"/>
        <rect id="prefix__a" width="624" height="312" x="0" y="0" rx="83.2"/>
    </defs>
    <g fill="none" fill-rule="evenodd">
        <rect width="622.5" height="310.5" x=".75" y=".75" fill="#FFF" fill-rule="nonzero" stroke="#343A40" stroke-width="1.5" rx="83.2"/>
        <mask id="prefix__b" fill="#fff">
            <use xlink:href="#prefix__a"/>
        </mask>
        <path fill="#343A40" fill-rule="nonzero" d="M42 312L42 0 43.5 0 43.5 312zM582 312L580.5 312 580.5 0 582 0z" mask="url(#prefix__b)"/>
        <g fill-rule="nonzero" transform="translate(58.5 177)">
            <path stroke="#343A40" stroke-width="1.5" d="M48.75 6c13.255 0 25.255 5.373 33.941 14.059C91.377 28.745 96.75 40.745 96.75 54c0 13.255-5.373 25.255-14.059 33.941C74.005 96.627 62.005 102 48.75 102c-13.255 0-25.255-5.373-33.941-14.059C6.123 79.255.75 67.255.75 54c0-13.255 5.373-25.255 14.059-33.941C23.495 11.373 35.495 6 48.75 6h0z"/>
            <path fill="#343A40" d="M39.75 101.25V108h-1.5v-6.75h1.5zm19.5 0V108h-1.5v-6.75h1.5zM39.75 0v6.75h-1.5V0h1.5zm19.5 0v6.75h-1.5V0h1.5zM40.5 49.5L40.5 42 42 42 42 51 30 51 30 49.5zM40.5 58.5L30 58.5 30 57 42 57 42 66 40.5 66zM57 49.5L57 42 55.5 42 55.5 51 67.5 51 67.5 49.5zM57 58.5L67.5 58.5 67.5 57 55.5 57 55.5 66 57 66z"/>
            <circle cx="48.75" cy="54" r="3.75" fill="#343A40"/>
        </g>
        <g fill-rule="nonzero" transform="translate(58.5 27)">
            <path stroke="#343A40" stroke-width="1.5" d="M48.75 6c13.255 0 25.255 5.373 33.941 14.059C91.377 28.745 96.75 40.745 96.75 54c0 13.255-5.373 25.255-14.059 33.941C74.005 96.627 62.005 102 48.75 102c-13.255 0-25.255-5.373-33.941-14.059C6.123 79.255.75 67.255.75 54c0-13.255 5.373-25.255 14.059-33.941C23.495 11.373 35.495 6 48.75 6h0z"/>
            <path fill="#343A40" d="M39.75 101.25V108h-1.5v-6.75h1.5zm19.5 0V108h-1.5v-6.75h1.5zM39.75 0v6.75h-1.5V0h1.5zm19.5 0v6.75h-1.5V0h1.5zM42 57v9h-1.5v-7.5H30V57h12zm25.5 0v1.5H57V66h-1.5v-9h12zM42 42v9H30v-1.5h10.5V42H42zm15 0v7.5h10.5V51h-12v-9H57z"/>
            <circle cx="48.75" cy="54" r="3.75" fill="#343A40"/>
        </g>
        <g fill-rule="nonzero" transform="translate(468 177)">
            <path stroke="#343A40" stroke-width="1.5" d="M48.75 6c13.255 0 25.255 5.373 33.941 14.059C91.377 28.745 96.75 40.745 96.75 54c0 13.255-5.373 25.255-14.059 33.941C74.005 96.627 62.005 102 48.75 102c-13.255 0-25.255-5.373-33.941-14.059C6.123 79.255.75 67.255.75 54c0-13.255 5.373-25.255 14.059-33.941C23.495 11.373 35.495 6 48.75 6h0z"/>
            <path fill="#343A40" d="M39.75 101.25V108h-1.5v-6.75h1.5zm19.5 0V108h-1.5v-6.75h1.5zM39.75 0v6.75h-1.5V0h1.5zm19.5 0v6.75h-1.5V0h1.5zM40.5 49.5L40.5 42 42 42 42 51 30 51 30 49.5zM40.5 58.5L30 58.5 30 57 42 57 42 66 40.5 66zM57 49.5L57 42 55.5 42 55.5 51 67.5 51 67.5 49.5zM57 58.5L67.5 58.5 67.5 57 55.5 57 55.5 66 57 66z"/>
            <circle cx="48.75" cy="54" r="3.75" fill="#343A40"/>
        </g>
        <g fill-rule="nonzero" transform="translate(468 27)">
            <path stroke="#343A40" stroke-width="1.5" d="M48.75 6c13.255 0 25.255 5.373 33.941 14.059C91.377 28.745 96.75 40.745 96.75 54c0 13.255-5.373 25.255-14.059 33.941C74.005 96.627 62.005 102 48.75 102c-13.255 0-25.255-5.373-33.941-14.059C6.123 79.255.75 67.255.75 54c0-13.255 5.373-25.255 14.059-33.941C23.495 11.373 35.495 6 48.75 6h0z"/>
            <path fill="#343A40" d="M39.75 101.25V108h-1.5v-6.75h1.5zm19.5 0V108h-1.5v-6.75h1.5zM39.75 0v6.75h-1.5V0h1.5zm19.5 0v6.75h-1.5V0h1.5zM42 57v9h-1.5v-7.5H30V57h12zm25.5 0v1.5H57V66h-1.5v-9h12zM42 42v9H30v-1.5h10.5V42H42zm15 0v7.5h10.5V51h-12v-9H57z"/>
            <circle cx="48.75" cy="54" r="3.75" fill="#343A40"/>
        </g>
        <path fill-rule="nonzero" stroke="#343A40" stroke-width="1.5" d="M312 108c13.255 0 25.255 5.373 33.941 14.059C354.627 130.745 360 142.745 360 156c0 13.255-5.373 25.255-14.059 33.941C337.255 198.627 325.255 204 312 204c-13.255 0-25.255-5.373-33.941-14.059C269.373 181.255 264 169.255 264 156c0-13.255 5.373-25.255 14.059-33.941C286.745 113.373 298.745 108 312 108h0z"/>
        <circle cx="312" cy="156" r="3.75" fill="#343A40" fill-rule="nonzero"/>
        <circle cx="237.75" cy="231" r="3.75" fill="#343A40" fill-rule="nonzero" transform="rotate(-90 237.75 231)"/>
        <circle cx="237.75" cy="81" r="3.75" fill="#343A40" fill-rule="nonzero" transform="rotate(-90 237.75 81)"/>
        <circle cx="386.25" cy="231" r="3.75" fill="#343A40" fill-rule="nonzero" transform="rotate(-90 386.25 231)"/>
        <circle cx="386.25" cy="81" r="3.75" fill="#343A40" fill-rule="nonzero" transform="rotate(-90 386.25 81)"/>
        <path fill="#343A40" fill-rule="nonzero" d="M220.5 312L220.5 0 223.5 0 223.5 312zM400.5 312L400.5 0 403.5 0 403.5 312zM310.5 312L310.5 0 313.5 0 313.5 312z"/>
        <g>
            <path fill="#343A40" d="M15 27V0h13.637C32.244 3.613 34.5 8.334 34.5 13.5s-2.256 9.887-5.863 13.5H15z" transform="translate(27.75 142.5)"/>
            <path fill-rule="nonzero" stroke="#343A40" stroke-width="1.5" d="M9.625.75c.347 0 .694.02 1.038.06h0l5.087.584v24.211l-5.087.585c-2.437.28-4.76-.431-6.545-1.808C2.34 23.011 1.096 20.977.81 18.605c-.04-.335-.06-.671-.06-1.008h0V9.402c0-2.387.992-4.547 2.593-6.112C4.951 1.72 7.173.75 9.625.75z" transform="translate(27.75 142.5)"/>
            <path fill-rule="nonzero" stroke="#343A40" stroke-width="1.5" d="M15 1.5c.174 0 .349.006.523.018h0l.227 23.953c-2.215.118-3.96-.463-5.262-1.492-1.262-.997-2.108-2.417-2.225-4.036h0L8.25 7.43c0-1.629.75-3.098 1.946-4.163C11.426 2.17 13.126 1.5 15 1.5z" transform="translate(27.75 142.5)"/>
        </g>
        <g>
            <path fill="#343A40" d="M15 27V0h13.637C32.244 3.613 34.5 8.334 34.5 13.5s-2.256 9.887-5.863 13.5H15z" transform="matrix(-1 0 0 1 597 142.5)"/>
            <path fill-rule="nonzero" stroke="#343A40" stroke-width="1.5" d="M9.625.75c.347 0 .694.02 1.038.06h0l5.087.584v24.211l-5.087.585c-2.437.28-4.76-.431-6.545-1.808C2.34 23.011 1.096 20.977.81 18.605c-.04-.335-.06-.671-.06-1.008h0V9.402c0-2.387.992-4.547 2.593-6.112C4.951 1.72 7.173.75 9.625.75z" transform="matrix(-1 0 0 1 597 142.5)"/>
            <path fill-rule="nonzero" stroke="#343A40" stroke-width="1.5" d="M15 1.5c.174 0 .349.006.523.018h0l.227 23.953c-2.215.118-3.96-.463-5.262-1.492-1.262-.997-2.108-2.417-2.225-4.036h0L8.25 7.43c0-1.629.75-3.098 1.946-4.163C11.426 2.17 13.126 1.5 15 1.5z" transform="matrix(-1 0 0 1 597 142.5)"/>
        </g>
        <g transform="translate(42 77.25)">
            <mask id="prefix__d" fill="#fff">
                <use xlink:href="#prefix__c"/>
            </mask>
            <use fill="#F03E3E" fill-opacity=".101" fill-rule="nonzero" xlink:href="#prefix__c"/>
            <path fill="#F03E3E" fill-opacity=".104" fill-rule="nonzero" d="M26.613 34.5L82.5 78.75 26.613 123 0 97.443 0 60.057z" mask="url(#prefix__d)"/>
        </g>
        <g transform="matrix(-1 0 0 1 582 77.25)">
            <mask id="prefix__f" fill="#fff">
                <use xlink:href="#prefix__e"/>
            </mask>
            <use fill="#F03E3E" fill-opacity=".101" fill-rule="nonzero" xlink:href="#prefix__e"/>
            <path fill="#F03E3E" fill-opacity=".104" fill-rule="nonzero" d="M26.613 34.5L82.5 78.75 26.613 123 0 97.443 0 60.057z" mask="url(#prefix__f)"/>
        </g>
    </g>
</svg>
