<svg xmlns="http://www.w3.org/2000/svg" width="16" height="12"><path fill="#FFF" d="M1.5 0h4.124c.206 0 .375.169.375.375v.25A.376.376 0 0 1 5.624 1H1.5c-.275 0-.5.225-.5.5v9c0 .275.225.5.5.5h4.124c.206 0 .375.169.375.375v.25a.376.376 0 0 1-.375.375H1.5A1.5 1.5 0 0 1 0 10.5v-9A1.5 1.5 0 0 1 1.5 0zm8.716.61L9.994.83a.375.375 0 0 0 0 .532l4.124 4.106H5.374a.376.376 0 0 0-.375.375v.312c0 .206.168.375.375.375h8.744l-4.12 4.107a.375.375 0 0 0 0 .53l.221.223a.375.375 0 0 0 .532 0l5.139-5.125a.375.375 0 0 0 0-.532L10.747.61a.375.375 0 0 0-.53 0z"/></svg>