<svg xmlns="http://www.w3.org/2000/svg" xmlns:xlink="http://www.w3.org/1999/xlink" width="272" height="122"><defs><linearGradient id="b" x1="50%" x2="50%" y1="0%" y2="100%"><stop offset="0%" stop-opacity="0"/><stop offset="100%"/></linearGradient><path id="a" d="M4.256 39.648c1.456 0 2.24-.784 2.24-2.24V22.624h7.448v14.784c0 1.456.784 2.24 2.24 2.24H18.2c1.456 0 2.24-.784 2.24-2.24V2.688c0-1.456-.784-2.24-2.24-2.24h-2.016c-1.456 0-2.24.784-2.24 2.24V16.8H6.496V2.688c0-1.456-.784-2.24-2.24-2.24H2.24C.784.448 0 1.232 0 2.688v34.72c0 1.456.784 2.24 2.24 2.24h2.016zm32.864.448c5.936 0 9.856-2.352 9.856-8.288V8.288C46.976 2.352 43.056 0 37.12 0h-.448c-5.936 0-9.856 2.296-9.856 8.288v23.52c0 5.936 3.92 8.288 9.856 8.288h.448zm-.224-5.712c-2.128 0-3.584-.784-3.584-3.584V9.296c0-2.8 1.456-3.584 3.584-3.584s3.584.784 3.584 3.584V30.8c0 2.8-1.456 3.584-3.584 3.584zm26.2 5.712c5.936 0 9.856-2.24 9.856-8.288v-5.88c0-1.456-.784-2.24-2.24-2.24h-2.016c-1.456 0-2.24.784-2.24 2.24V30.8c0 2.744-1.344 3.584-3.416 3.584s-3.416-.84-3.416-3.584V9.296c0-2.744 1.344-3.584 3.416-3.584s3.416.84 3.416 3.584v3.92c0 1.456.784 2.24 2.24 2.24h2.016c1.456 0 2.24-.784 2.24-2.24V8.288c0-5.824-3.92-8.288-9.856-8.288h-.112c-5.936 0-9.856 2.464-9.856 8.288v23.52c0 6.104 3.92 8.288 9.856 8.288h.112zm20.264-.448c1.456 0 2.24-.784 2.24-2.24v-9.072l2.912-5.712L93.328 37.8c.392 1.288 1.232 1.848 2.52 1.848h1.96c1.624 0 2.352-1.064 1.848-2.576L92.32 15.176 98.48 3.08c.784-1.512.112-2.632-1.624-2.632h-2.352c-1.232 0-2.128.56-2.576 1.736L85.6 18.088v-15.4c0-1.456-.784-2.24-2.24-2.24h-2.016c-1.456 0-2.24.784-2.24 2.24v34.72c0 1.456.784 2.24 2.24 2.24h2.016zm35.944 0c1.456 0 2.24-.784 2.24-2.24v-1.232c0-1.456-.784-2.24-2.24-2.24h-8.624V22.624h6.72c1.456 0 2.24-.784 2.24-2.24v-1.232c0-1.456-.784-2.24-2.24-2.24h-6.72V6.16h8.456c1.456 0 2.24-.784 2.24-2.24V2.688c0-1.456-.784-2.24-2.24-2.24h-12.712c-1.456 0-2.24.784-2.24 2.24v34.72c0 1.456.784 2.24 2.24 2.24h12.88zm17.184 0c1.456 0 2.24-.784 2.24-2.24V25.704l7.112-22.736c.504-1.512-.224-2.52-1.848-2.52h-2.072c-1.344 0-2.128.616-2.464 1.96l-3.92 16.24-3.92-16.24c-.336-1.344-1.12-1.96-2.464-1.96h-2.184c-1.624 0-2.352 1.008-1.848 2.52l7.112 22.736v11.704c0 1.456.784 2.24 2.24 2.24h2.016z"/><linearGradient id="d" x1="50%" x2="50%" y1="0%" y2="100%"><stop offset="0%" stop-opacity="0"/><stop offset="100%"/></linearGradient><path id="c" d="M159.216 39.648c1.456 0 2.24-.784 2.24-2.24V6.16h4.312c1.456 0 2.24-.784 2.24-2.24V2.688c0-1.456-.784-2.24-2.24-2.24h-15.12c-1.456 0-2.24.784-2.24 2.24V3.92c0 1.456.784 2.24 2.24 2.24h4.312v31.248c0 1.456.784 2.24 2.24 2.24h2.016zm17.184 0c1.456 0 2.24-.784 2.24-2.24V24.024h3.304l4.368 13.776c.392 1.288 1.232 1.848 2.52 1.848h1.96c1.624 0 2.352-1.064 1.848-2.576l-4.76-14.056c2.688-1.176 4.256-3.528 4.256-7.28v-7c0-5.936-3.92-8.288-9.856-8.288h-7.896c-1.456 0-2.24.784-2.24 2.24v34.72c0 1.456.784 2.24 2.24 2.24h2.016zm5.656-21.224h-3.416V6.16h3.416c2.128 0 3.584.784 3.584 3.584v5.096c0 2.8-1.456 3.584-3.584 3.584zm18.192 21.224c1.344 0 2.184-.672 2.408-2.072l1.064-6.664h7.168l1.064 6.664c.224 1.4 1.064 2.072 2.408 2.072h2.072c1.512 0 2.296-.84 2.016-2.408l-6.552-34.776c-.224-1.344-1.12-2.016-2.464-2.016H205.4c-1.344 0-2.24.672-2.464 2.016l-6.44 34.776c-.28 1.568.504 2.408 2.016 2.408h1.736zm9.8-14.112h-5.488l2.744-17.416 2.744 17.416zm22.504 14.56c5.936 0 9.856-2.24 9.856-8.288v-5.88c0-1.456-.784-2.24-2.24-2.24h-2.016c-1.456 0-2.24.784-2.24 2.24V30.8c0 2.744-1.344 3.584-3.416 3.584s-3.416-.84-3.416-3.584V9.296c0-2.744 1.344-3.584 3.416-3.584s3.416.84 3.416 3.584v3.92c0 1.456.784 2.24 2.24 2.24h2.016c1.456 0 2.24-.784 2.24-2.24V8.288c0-5.824-3.92-8.288-9.856-8.288h-.112c-5.936 0-9.856 2.464-9.856 8.288v23.52c0 6.104 3.92 8.288 9.856 8.288h.112zm20.264-.448c1.456 0 2.24-.784 2.24-2.24v-9.072l2.912-5.712 4.816 15.176c.392 1.288 1.232 1.848 2.52 1.848h1.96c1.624 0 2.352-1.064 1.848-2.576l-7.336-21.896 6.16-12.096c.784-1.512.112-2.632-1.624-2.632h-2.352c-1.232 0-2.128.56-2.576 1.736l-6.328 15.904v-15.4c0-1.456-.784-2.24-2.24-2.24H250.8c-1.456 0-2.24.784-2.24 2.24v34.72c0 1.456.784 2.24 2.24 2.24h2.016z"/><linearGradient id="e" x1="50%" x2="50%" y1="0%" y2="100%"><stop offset="0%" stop-color="#20C997"/><stop offset="100%" stop-color="#12B886"/></linearGradient><linearGradient id="g" x1="50%" x2="50%" y1="0%" y2="100%"><stop offset="0%" stop-color="#0B0D0E" stop-opacity="0"/><stop offset="100%" stop-color="#0B0D0E" stop-opacity=".248"/></linearGradient><path id="f" d="M153.323 32c0-5.691-4.631-10.322-10.323-10.322-4.354 0-8.068 2.719-9.582 6.54 7.01-1.993 8.12-2.411 9.582-2.411a6.2 6.2 0 0 1 6.194 6.194c0 1.453-.4 2.508-2.412 9.582 3.822-1.514 6.54-5.229 6.54-9.582zm10.838 0c0-11.696-9.466-21.161-21.161-21.161-11.524 0-20.835 9.2-21.111 20.656l4.252-1.208c.874-8.58 8.054-15.319 16.859-15.319 9.392 0 17.032 7.64 17.032 17.033 0 8.804-6.74 15.984-15.317 16.86l-1.21 4.251c11.458-.276 20.656-9.59 20.656-21.111zM143 0c-17.674 0-32 14.327-32 32 0 .943.06 1.87.14 2.792.447-.255.904-.5 1.419-.646l2.641-.75c-.023-.465-.071-.924-.071-1.395 0-15.368 12.503-27.872 27.871-27.872 15.368 0 27.871 12.504 27.871 27.872S158.368 59.872 143 59.872c-.471 0-.93-.048-1.395-.07l-.75 2.64c-.148.518-.407.967-.664 1.416.928.081 1.86.142 2.809.142 17.674 0 32-14.327 32-32 0-17.675-14.326-32-32-32z"/><filter id="h" width="101.6%" height="101.6%" x="-.8%" y="-.8%" filterUnits="objectBoundingBox"><feOffset dy="-1" in="SourceAlpha" result="shadowOffsetInner1"/><feComposite in="shadowOffsetInner1" in2="SourceAlpha" k2="-1" k3="1" operator="arithmetic" result="shadowInnerInner1"/><feColorMatrix in="shadowInnerInner1" values="0 0 0 0 1 0 0 0 0 1 0 0 0 0 1 0 0 0 0.5 0"/></filter><linearGradient id="i" x1="50%" x2="50%" y1="0%" y2="100%"><stop offset="0%" stop-color="#FFF"/><stop offset="100%" stop-color="#FFF"/></linearGradient><linearGradient id="k" x1="50%" x2="50%" y1="0%" y2="100%"><stop offset="0%" stop-color="#0B0D0E" stop-opacity="0"/><stop offset="100%" stop-color="#0B0D0E" stop-opacity=".248"/></linearGradient><path id="j" d="M141.734 30.026l-28.474 8.092c-2.017.573-2.253 3.337-.364 4.244l7.132 3.425-7.818 7.818a4.128 4.128 0 0 0 0 5.839l2.918 2.919a4.116 4.116 0 0 0 2.92 1.209 4.116 4.116 0 0 0 2.92-1.21l7.818-7.818 3.425 7.132a2.235 2.235 0 0 0 2.046 1.292c.948 0 1.89-.57 2.2-1.656l8.092-28.474c.486-1.716-1.1-3.3-2.815-2.812zm-7.917 25.462l-3.832-7.981-11.937 11.937-2.918-2.919 11.936-11.937-7.979-3.834 20.58-5.849-5.85 20.583z"/><filter id="l" width="78.8%" height="54.5%" x="-1.1%" y="46.3%" filterUnits="objectBoundingBox"><feOffset dy="-1" in="SourceAlpha" result="shadowOffsetInner1"/><feComposite in="shadowOffsetInner1" in2="SourceAlpha" k2="-1" k3="1" operator="arithmetic" result="shadowInnerInner1"/><feColorMatrix in="shadowInnerInner1" values="0 0 0 0 1 0 0 0 0 1 0 0 0 0 1 0 0 0 0.5 0"/></filter></defs><g fill="none"><path fill="#FFF" d="M6.056 120c1.456 0 2.24-.784 2.24-2.24v-14.784h7.448v14.784c0 1.456.784 2.24 2.24 2.24H20c1.456 0 2.24-.784 2.24-2.24V83.04c0-1.456-.784-2.24-2.24-2.24h-2.016c-1.456 0-2.24.784-2.24 2.24v14.112H8.296V83.04c0-1.456-.784-2.24-2.24-2.24H4.04c-1.456 0-2.24.784-2.24 2.24v34.72c0 1.456.784 2.24 2.24 2.24h2.016zm32.864.448c5.936 0 9.856-2.352 9.856-8.288V88.64c0-5.936-3.92-8.288-9.856-8.288h-.448c-5.936 0-9.856 2.296-9.856 8.288v23.52c0 5.936 3.92 8.288 9.856 8.288h.448zm-.224-5.712c-2.128 0-3.584-.784-3.584-3.584V89.648c0-2.8 1.456-3.584 3.584-3.584s3.584.784 3.584 3.584v21.504c0 2.8-1.456 3.584-3.584 3.584zm26.2 5.712c5.936 0 9.856-2.24 9.856-8.288v-5.88c0-1.456-.784-2.24-2.24-2.24h-2.016c-1.456 0-2.24.784-2.24 2.24v4.872c0 2.744-1.344 3.584-3.416 3.584s-3.416-.84-3.416-3.584V89.648c0-2.744 1.344-3.584 3.416-3.584s3.416.84 3.416 3.584v3.92c0 1.456.784 2.24 2.24 2.24h2.016c1.456 0 2.24-.784 2.24-2.24V88.64c0-5.824-3.92-8.288-9.856-8.288h-.112c-5.936 0-9.856 2.464-9.856 8.288v23.52c0 6.104 3.92 8.288 9.856 8.288h.112zM85.16 120c1.456 0 2.24-.784 2.24-2.24v-9.072l2.912-5.712 4.816 15.176c.392 1.288 1.232 1.848 2.52 1.848h1.96c1.624 0 2.352-1.064 1.848-2.576L94.12 95.528l6.16-12.096c.784-1.512.112-2.632-1.624-2.632h-2.352c-1.232 0-2.128.56-2.576 1.736L87.4 98.44v-15.4c0-1.456-.784-2.24-2.24-2.24h-2.016c-1.456 0-2.24.784-2.24 2.24v34.72c0 1.456.784 2.24 2.24 2.24h2.016zm35.944 0c1.456 0 2.24-.784 2.24-2.24v-1.232c0-1.456-.784-2.24-2.24-2.24h-8.624v-11.312h6.72c1.456 0 2.24-.784 2.24-2.24v-1.232c0-1.456-.784-2.24-2.24-2.24h-6.72V86.512h8.456c1.456 0 2.24-.784 2.24-2.24V83.04c0-1.456-.784-2.24-2.24-2.24h-12.712c-1.456 0-2.24.784-2.24 2.24v34.72c0 1.456.784 2.24 2.24 2.24h12.88zm17.184 0c1.456 0 2.24-.784 2.24-2.24v-11.704l7.112-22.736c.504-1.512-.224-2.52-1.848-2.52h-2.072c-1.344 0-2.128.616-2.464 1.96L137.336 99l-3.92-16.24c-.336-1.344-1.12-1.96-2.464-1.96h-2.184c-1.624 0-2.352 1.008-1.848 2.52l7.112 22.736v11.704c0 1.456.784 2.24 2.24 2.24h2.016z"/><path fill="#12B886" d="M161.016 120c1.456 0 2.24-.784 2.24-2.24V86.512h4.312c1.456 0 2.24-.784 2.24-2.24V83.04c0-1.456-.784-2.24-2.24-2.24h-15.12c-1.456 0-2.24.784-2.24 2.24v1.232c0 1.456.784 2.24 2.24 2.24h4.312v31.248c0 1.456.784 2.24 2.24 2.24h2.016zm17.184 0c1.456 0 2.24-.784 2.24-2.24v-13.384h3.304l4.368 13.776c.392 1.288 1.232 1.848 2.52 1.848h1.96c1.624 0 2.352-1.064 1.848-2.576l-4.76-14.056c2.688-1.176 4.256-3.528 4.256-7.28v-7c0-5.936-3.92-8.288-9.856-8.288h-7.896c-1.456 0-2.24.784-2.24 2.24v34.72c0 1.456.784 2.24 2.24 2.24h2.016zm5.656-21.224h-3.416V86.512h3.416c2.128 0 3.584.784 3.584 3.584v5.096c0 2.8-1.456 3.584-3.584 3.584zM202.048 120c1.344 0 2.184-.672 2.408-2.072l1.064-6.664h7.168l1.064 6.664c.224 1.4 1.064 2.072 2.408 2.072h2.072c1.512 0 2.296-.84 2.016-2.408l-6.552-34.776c-.224-1.344-1.12-2.016-2.464-2.016H207.2c-1.344 0-2.24.672-2.464 2.016l-6.44 34.776c-.28 1.568.504 2.408 2.016 2.408h1.736zm9.8-14.112h-5.488l2.744-17.416 2.744 17.416zm22.504 14.56c5.936 0 9.856-2.24 9.856-8.288v-5.88c0-1.456-.784-2.24-2.24-2.24h-2.016c-1.456 0-2.24.784-2.24 2.24v4.872c0 2.744-1.344 3.584-3.416 3.584s-3.416-.84-3.416-3.584V89.648c0-2.744 1.344-3.584 3.416-3.584s3.416.84 3.416 3.584v3.92c0 1.456.784 2.24 2.24 2.24h2.016c1.456 0 2.24-.784 2.24-2.24V88.64c0-5.824-3.92-8.288-9.856-8.288h-.112c-5.936 0-9.856 2.464-9.856 8.288v23.52c0 6.104 3.92 8.288 9.856 8.288h.112zm20.264-.448c1.456 0 2.24-.784 2.24-2.24v-9.072l2.912-5.712 4.816 15.176c.392 1.288 1.232 1.848 2.52 1.848h1.96c1.624 0 2.352-1.064 1.848-2.576l-7.336-21.896 6.16-12.096c.784-1.512.112-2.632-1.624-2.632h-2.352c-1.232 0-2.128.56-2.576 1.736l-6.328 15.904v-15.4c0-1.456-.784-2.24-2.24-2.24H252.6c-1.456 0-2.24.784-2.24 2.24v34.72c0 1.456.784 2.24 2.24 2.24h2.016z"/><g opacity=".247" transform="translate(.8 79.352)"><use fill="#FFF" xlink:href="#a"/><use fill="url(#b)" xlink:href="#a"/><use fill="#12B886" xlink:href="#c"/><use fill="url(#d)" xlink:href="#c"/></g><use fill="url(#e)" xlink:href="#f"/><use fill="url(#g)" xlink:href="#f"/><use fill="#000" filter="url(#h)" xlink:href="#f"/><use fill="url(#i)" xlink:href="#j"/><use fill="url(#k)" xlink:href="#j"/><use fill="#000" filter="url(#l)" xlink:href="#j"/></g></svg>