<svg xmlns="http://www.w3.org/2000/svg" width="16" height="16" viewBox="0 0 16 16">
    <path fill="#0B0D0E" d="M15.414 1.757L14.243.586c-.781-.781-2.048-.781-2.829 0L.401 11.599l-.396 3.568c-.053.478.35.881.828.828l3.568-.396L15.414 4.586c.781-.781.781-2.048 0-2.829zm-2.975 4.39l-7.002 7.001v-1.085h-1.5v-1.5H2.853L9.854 3.56l2.585 2.585zm-8.497 8.497l-1.844.205-.947-.947.205-1.844.62-.62h1.087v1.5h1.5v1.085l-.62.62zM14.707 3.879l-1.56 1.56-2.586-2.585 1.56-1.561c.391-.39 1.024-.39 1.415 0l1.171 1.171c.39.391.39 1.024 0 1.415z"/>
</svg>
