<svg xmlns="http://www.w3.org/2000/svg" width="16" height="16" viewBox="0 0 16 16">
    <g fill="none" fill-rule="evenodd">
        <g fill="#0B0D0E" fill-rule="nonzero">
            <g>
                <path d="M12.129 7.806v.388c0 .212-.174.387-.387.387H8.58v3.16c0 .214-.175.388-.387.388h-.388c-.212 0-.387-.174-.387-.387V8.58H4.26c-.214 0-.388-.175-.388-.387v-.388c0-.212.174-.387.387-.387H7.42V4.26c0-.214.175-.388.387-.388h.388c.212 0 .387.174.387.387V7.42h3.16c.214 0 .388.175.388.387zM16 8c0 4.42-3.58 8-8 8s-8-3.58-8-8 3.58-8 8-8 8 3.58 8 8zm-1.032 0c0-3.868-3.139-6.968-6.968-6.968-3.868 0-6.968 3.139-6.968 6.968 0 3.868 3.139 6.968 6.968 6.968 3.868 0 6.968-3.139 6.968-6.968z" transform="translate(-672 -32) translate(672 32)"/>
            </g>
        </g>
    </g>
</svg>
