<svg xmlns="http://www.w3.org/2000/svg" width="16" height="16" viewBox="0 0 16 16">
    <g fill="none" fill-rule="evenodd">
        <g fill="#FFF" fill-rule="nonzero">
            <g>
                <path d="M184 11c4.418 0 8 3.582 8 8s-3.582 8-8 8-8-3.582-8-8 3.582-8 8-8zm0 1c-3.866 0-7 3.134-7 7s3.134 7 7 7 7-3.134 7-7-3.134-7-7-7zm0 9c.533 0 .996.448 1 .996-.004.556-.467 1.004-1 1.004-.55 0-1.004-.448-1-1.004-.004-.548.45-.996 1-.996zm1-6l-.175 5h-1.645l-.18-5h2z" transform="translate(-977 -849) translate(801 838)"/>
            </g>
        </g>
    </g>
</svg>
