<svg xmlns="http://www.w3.org/2000/svg" width="12" height="6" viewBox="0 0 12 6">
    <path fill="#FFF" d="M2.48 3.75h7.04L8.437 4.775c-.23.218-.235.582-.011.806l.254.254c.22.22.576.22.795 0L11.78 3.53c.293-.293.293-.767 0-1.06L9.475.165c-.22-.22-.575-.22-.795 0l-.254.254c-.224.224-.22.588.011.806L9.52 2.25H2.48l1.083-1.025c.23-.218.235-.582.011-.806L3.32.165c-.22-.22-.576-.22-.795 0L.22 2.47c-.293.293-.293.767 0 1.06l2.305 2.305c.22.22.575.22.795 0l.254-.254c.224-.224.22-.588-.011-.806L2.48 3.75z"/>
</svg>
