<svg xmlns="http://www.w3.org/2000/svg" width="16" height="16" viewBox="0 0 16 16">
    <path fill="#212529" d="M14.293.293L12.727 1.86C11.42.85 9.78.25 8 .25 3.85.25.463 3.51.26 7.61.25 7.821.42 8 .634 8h.313c.199 0 .364-.155.375-.353C1.505 4.122 4.418 1.312 8 1.312c1.486 0 2.859.485 3.97 1.305l-1.676 1.676C9.666 4.92 10.11 6 11 6H15c.552 0 1-.448 1-1V1c0-.89-1.08-1.334-1.707-.707zM15 5h-4l4-4v4zm.366 3h-.313c-.199 0-.364.155-.375.353-.183 3.528-3.1 6.335-6.678 6.335-1.485 0-2.858-.485-3.97-1.305l1.676-1.676C6.334 11.08 5.89 10 5 10H1c-.552 0-1 .448-1 1v4c0 .893 1.082 1.332 1.707.706l1.565-1.565C4.581 15.15 6.22 15.75 8 15.75c4.15 0 7.537-3.26 7.74-7.36.01-.212-.161-.39-.374-.39zM1 15v-4h4l-4 4z"/>
</svg>
