<?xml version="1.0" encoding="UTF-8"?>
<svg width="16px" height="16px" viewBox="0 0 16 16" version="1.1" xmlns="http://www.w3.org/2000/svg" xmlns:xlink="http://www.w3.org/1999/xlink">
    <!-- Generator: Sketch 52.2 (67145) - http://www.bohemiancoding.com/sketch -->
    <title>times-circle</title>
    <desc>Created with Sketch.</desc>
    <g id="Page-1" stroke="none" stroke-width="1" fill="none" fill-rule="evenodd">
        <g id="times-circle" fill="#0B0D0E" fill-rule="nonzero">
            <path d="M8,0 C3.58,0 0,3.58 0,8 C0,12.42 3.58,16 8,16 C12.42,16 16,12.42 16,8 C16,3.58 12.42,0 8,0 Z M8,14.968 C4.171,14.968 1.032,11.868 1.032,8 C1.032,4.171 4.132,1.032 8,1.032 C11.829,1.032 14.968,4.132 14.968,8 C14.968,11.829 11.868,14.968 8,14.968 Z M11.058,5.765 L8.823,8 L11.058,10.235 C11.21,10.387 11.21,10.632 11.058,10.784 L10.784,11.058 C10.632,11.21 10.387,11.21 10.235,11.058 L8,8.823 L5.765,11.058 C5.613,11.21 5.368,11.21 5.216,11.058 L4.942,10.784 C4.79,10.632 4.79,10.387 4.942,10.235 L7.177,8 L4.942,5.765 C4.79,5.613 4.79,5.368 4.942,5.216 L5.216,4.942 C5.368,4.79 5.613,4.79 5.765,4.942 L8,7.177 L10.235,4.942 C10.387,4.79 10.632,4.79 10.784,4.942 L11.058,5.216 C11.206,5.368 11.206,5.613 11.058,5.765 Z" id="Shape"></path>
        </g>
    </g>
</svg>