<svg xmlns="http://www.w3.org/2000/svg" width="16" height="16" viewBox="0 0 16 16">
    <g fill="none" fill-rule="evenodd">
        <g fill="#0B0D0E" fill-rule="nonzero">
            <g>
                <g>
                    <path d="M8 0C3.58 0 0 3.58 0 8s3.58 8 8 8 8-3.58 8-8-3.58-8-8-8zm0 14.968c-3.829 0-6.968-3.1-6.968-6.968 0-3.829 3.1-6.968 6.968-6.968 3.829 0 6.968 3.1 6.968 6.968 0 3.829-3.1 6.968-6.968 6.968zm3.058-9.203L8.823 8l2.235 2.235c.152.152.152.397 0 .549l-.274.274c-.152.152-.397.152-.549 0L8 8.823l-2.235 2.235c-.152.152-.397.152-.549 0l-.274-.274c-.152-.152-.152-.397 0-.549L7.177 8 4.942 5.765c-.152-.152-.152-.397 0-.549l.274-.274c.152-.152.397-.152.549 0L8 7.177l2.235-2.235c.152-.152.397-.152.549 0l.274.274c.148.152.148.397 0 .549z" transform="translate(-1045 -568) translate(725 552) translate(320 16)"/>
                </g>
            </g>
        </g>
    </g>
</svg>
