<svg xmlns="http://www.w3.org/2000/svg" width="14" height="16" viewBox="0 0 14 16">
    <defs>
        <linearGradient id="409fq11y3a" x1="50%" x2="50%" y1=".216%" y2="100%">
            <stop offset="0%" stop-color="#343A40"/>
            <stop offset="100%" stop-color="#212529"/>
        </linearGradient>
    </defs>
    <g fill="none" fill-rule="evenodd">
        <g fill="url(#409fq11y3a)" fill-rule="nonzero" transform="translate(-1478 -604)">
            <g>
                <path d="M1 14.5c0 .828.672 1.5 1.5 1.5h9c.828 0 1.5-.672 1.5-1.5V4H1v10.5zm8.5-8c0-.276.224-.5.5-.5s.5.224.5.5v7c0 .276-.224.5-.5.5s-.5-.224-.5-.5v-7zm-3 0c0-.276.224-.5.5-.5s.5.224.5.5v7c0 .276-.224.5-.5.5s-.5-.224-.5-.5v-7zm-3 0c0-.276.224-.5.5-.5s.5.224.5.5v7c0 .276-.224.5-.5.5s-.5-.224-.5-.5v-7zm10-5.5H9.75L9.456.416C9.33.16 9.07 0 8.784 0H5.212c-.284-.001-.543.16-.668.416L4.25 1H.5c-.276 0-.5.224-.5.5v1c0 .276.224.5.5.5h13c.276 0 .5-.224.5-.5v-1c0-.276-.224-.5-.5-.5z" transform="translate(1478 604)"/>
            </g>
        </g>
    </g>
</svg>
