<svg xmlns="http://www.w3.org/2000/svg" width="16" height="16" viewBox="0 0 16 16">
    <path fill="#12B886" d="M8 0C3.58 0 0 3.58 0 8s3.58 8 8 8 8-3.58 8-8-3.58-8-8-8zm4.129 13.6c-1.158.855-2.584 1.368-4.129 1.368-1.545 0-2.971-.513-4.129-1.368v-.439c0-1.138.926-2.064 2.064-2.064.359 0 .888.368 2.065.368 1.18 0 1.703-.368 2.065-.368 1.138 0 2.064.926 2.064 2.064v.439zm.987-.887c-.22-1.497-1.493-2.648-3.051-2.648-.662 0-.981.367-2.065.367s-1.4-.367-2.065-.367c-1.558 0-2.832 1.151-3.051 2.648C1.739 11.47 1.032 9.819 1.032 8c0-3.842 3.126-6.968 6.968-6.968S14.968 4.158 14.968 8c0 1.82-.707 3.471-1.852 4.713zM8 3.613c-1.568 0-2.839 1.27-2.839 2.839C5.161 8.019 6.432 9.29 8 9.29s2.839-1.27 2.839-2.838S9.568 3.612 8 3.612zm0 4.645c-.997 0-1.806-.81-1.806-1.806 0-.997.81-1.807 1.806-1.807.997 0 1.806.81 1.806 1.807 0 .996-.81 1.806-1.806 1.806z"/>
</svg>
