<?xml version="1.0" standalone="no"?>
<!DOCTYPE svg PUBLIC "-//W3C//DTD SVG 20010904//EN"
 "http://www.w3.org/TR/2001/REC-SVG-20010904/DTD/svg10.dtd">
<svg version="1.0" xmlns="http://www.w3.org/2000/svg"
 width="128.000000pt" height="128.000000pt" viewBox="0 0 128.000000 128.000000"
 preserveAspectRatio="xMidYMid meet">
<metadata>
Created by potrace 1.11, written by Peter Selinger 2001-2013
</metadata>
<g transform="translate(0.000000,128.000000) scale(0.100000,-0.100000)"
fill="#000000" stroke="none">
<path d="M513 1270 c-294 -63 -513 -329 -513 -625 l0 -62 44 14 c40 13 43 17
42 46 -4 60 24 172 60 246 91 185 285 304 494 304 153 0 280 -54 391 -164 218
-217 218 -560 -1 -779 -101 -101 -226 -157 -362 -162 l-57 -2 -15 -45 -14 -44
96 6 c485 27 761 564 504 977 -74 119 -194 214 -332 265 -61 22 -96 28 -185
31 -60 2 -129 -1 -152 -6z"/>
<path d="M570 1059 c-173 -29 -330 -189 -347 -355 l-6 -55 29 7 c47 11 64 23
64 47 0 12 12 47 26 77 44 96 119 159 221 185 76 20 108 19 189 -6 57 -18 77
-31 130 -83 52 -53 65 -73 83 -130 26 -85 26 -127 1 -207 -26 -86 -92 -162
-174 -200 -34 -16 -71 -29 -83 -29 -24 0 -36 -17 -47 -64 l-7 -29 55 6 c76 8
172 56 234 118 167 166 167 433 1 598 -96 96 -236 142 -369 120z"/>
<path d="M578 836 c-21 -7 -49 -21 -63 -30 -30 -20 -69 -79 -56 -84 6 -2 41 6
79 17 112 34 163 25 203 -35 24 -37 24 -71 -1 -162 -26 -93 -26 -95 9 -77 69
35 114 142 92 221 -32 119 -157 190 -263 150z"/>
<path d="M311 596 c-237 -68 -286 -86 -294 -104 -16 -35 -1 -51 78 -89 41 -19
75 -38 75 -41 0 -3 -38 -45 -85 -93 -107 -109 -109 -125 -34 -205 45 -46 57
-54 89 -54 33 0 46 9 125 87 49 48 90 83 92 78 2 -6 20 -41 41 -80 30 -56 42
-71 63 -73 14 -2 31 3 36 10 14 16 173 570 173 601 0 30 -18 47 -49 46 -15 -1
-154 -38 -310 -83z m202 -220 l-57 -198 -39 77 -39 78 -119 -119 -119 -119
-27 28 -28 27 119 119 119 119 -77 39 -77 39 198 56 c109 31 199 55 200 54 1
-1 -23 -91 -54 -200z"/>
</g>
</svg>
